<?xml version="1.0" encoding="UTF-8" standalone="no"?>
<!-- Created with Inkscape (http://www.inkscape.org/) -->

<svg
   xmlns:dc="http://purl.org/dc/elements/1.1/"
   xmlns:cc="http://creativecommons.org/ns#"
   xmlns:rdf="http://www.w3.org/1999/02/22-rdf-syntax-ns#"
   xmlns:svg="http://www.w3.org/2000/svg"
   xmlns="http://www.w3.org/2000/svg"
   xmlns:sodipodi="http://sodipodi.sourceforge.net/DTD/sodipodi-0.dtd"
   xmlns:inkscape="http://www.inkscape.org/namespaces/inkscape"
   id="svg3783"
   version="1.1"
   inkscape:version="0.48.4 r9939"
   width="1683.9"
   height="838.8"
   xml:space="preserve"
   sodipodi:docname="xshear.pdf"><options
     id="options3789"><rdf:RDF><cc:Work
         rdf:about=""><dc:format>image/svg+xml</dc:format><dc:type
           rdf:resource="http://purl.org/dc/dcmitype/StillImage" /><dc:title></dc:title></cc:Work></rdf:RDF></options><defs
     id="defs3787"><clipPath
       clipPathUnits="userSpaceOnUse"
       id="clipPath3801"><path
         d="m 30.8715,30.756 625.2882,0 0,609.528 -625.2882,0 0,-609.528 z"
         id="path3803" /></clipPath><clipPath
       clipPathUnits="userSpaceOnUse"
       id="clipPath3901"><path
         d="m 690.9603,30.756 625.2882,0 0,609.528 -625.2882,0 0,-609.528 z"
         id="path3903" /></clipPath></defs><sodipodi:namedview
     pagecolor="#ffffff"
     bordercolor="#666666"
     borderopacity="1"
     objecttolerance="10"
     gridtolerance="10"
     guidetolerance="10"
     inkscape:pageopacity="0"
     inkscape:pageshadow="2"
     inkscape:window-width="640"
     inkscape:window-height="480"
     id="namedview3785"
     showgrid="false"
     inkscape:zoom="0.22507274"
     inkscape:cx="841.95001"
     inkscape:cy="419.39999"
     inkscape:window-x="98"
     inkscape:window-y="36"
     inkscape:window-maximized="0"
     inkscape:current-layer="g3791" /><g
     id="g3791"
     inkscape:groupmode="layer"
     inkscape:label="xshear"
     transform="matrix(1.25,0,0,-1.25,0,838.8)"><path
       d="m 0,0 1347.12,0 0,671.04 L 0,671.04 0,0 z"
       style="fill:#ffffff;fill-opacity:1;fill-rule:nonzero;stroke:none"
       id="path3793" /><path
       d="m 30.8715,30.756 625.2882,0 0,609.528 -625.2882,0 0,-609.528 z"
       style="fill:#ffffff;fill-opacity:1;fill-rule:nonzero;stroke:none"
       id="path3795" /><g
       id="g3797"><g
         id="g3799"
         clip-path="url(#clipPath3801)"><path
           d="m 60.35909,145.05472 27.206459,22.46013 26.630901,21.98499 26.07343,21.52476 25.53327,21.07883 25.00972,20.64663 24.50212,20.22758 24.00981,19.82116 23.5322,19.42686 23.06869,19.04422 22.61875,18.67277 22.18184,18.31209 21.75747,17.96175 21.34516,17.62137 20.94447,17.29058 20.55495,16.96901 20.17619,16.65634 19.80782,16.35222 19.44943,16.05637 19.10069,15.76846 18.76125,15.48823 -425.058161,-350.90422 26.630901,21.98499 26.07343,21.52476 25.53327,21.07883 25.00972,20.64663 24.50212,20.22758 24.00981,19.82116 23.5322,19.42686 23.06869,19.04422 22.61875,18.67277 22.18184,18.31209 21.75747,17.96175 21.34516,17.62137 20.94447,17.29058 20.55495,16.96901 20.17619,16.65634 19.80782,16.35222 19.44943,16.05637 19.10069,15.76846 18.76125,15.48823"
           style="fill:none;stroke:#000000;stroke-opacity:1;stroke-width:2;stroke-linecap:butt;stroke-linejoin:round;stroke-miterlimit:10;stroke-dasharray:none"
           id="path3805" /><path
           d="m 100.9674,131.86495 26.9386,22.7415 26.36522,22.25744 25.80994,21.78869 25.27202,21.33458 24.75075,20.89452 24.24544,20.46795 23.75546,20.05429 23.28016,19.65306 22.81901,19.26374 22.37141,18.88589 21.93685,18.51904 21.51484,18.16278 21.1049,17.81669 20.70654,17.48042 20.31937,17.15356 19.94296,16.8358 19.57691,16.52677 19.22084,16.22619 18.87441,15.93373 18.53725,15.6491 -420.40428,-354.90424 26.36522,22.25744 25.80994,21.78869 25.27202,21.33458 24.75075,20.89452 24.24544,20.46795 23.75546,20.05429 23.28016,19.65306 22.81901,19.26374 22.37141,18.88589 21.93685,18.51904 21.51484,18.16278 21.1049,17.81669 20.70654,17.48042 20.31937,17.15356 19.94296,16.8358 19.57691,16.52677 19.22084,16.22619 18.87441,15.93373 18.53725,15.6491"
           style="fill:none;stroke:#000000;stroke-opacity:1;stroke-width:2;stroke-linecap:butt;stroke-linejoin:round;stroke-miterlimit:10;stroke-dasharray:none"
           id="path3807" /><path
           d="m 142.08881,118.50851 26.66185,23.02819 26.09084,22.53501 25.53798,22.0575 25.00251,21.595 24.48371,21.14691 23.98089,20.71262 23.4934,20.29157 23.02063,19.88322 22.56198,19.48709 22.11691,19.10267 21.68488,18.72952 21.26539,18.3672 20.85794,18.01529 20.4621,17.67339 20.07742,17.34114 19.7035,17.01817 19.33991,16.70414 18.9863,16.39872 18.6423,16.10161 18.30756,15.81249 -415.61615,-358.97326 26.09084,22.53501 25.53798,22.0575 25.00251,21.595 24.48371,21.14691 23.98089,20.71262 23.4934,20.29157 23.02063,19.88322 22.56198,19.48709 22.11691,19.10267 21.68488,18.72952 21.26539,18.3672 20.85794,18.01529 20.4621,17.67339 20.07742,17.34114 19.7035,17.01817 19.33991,16.70414 18.9863,16.39872 18.6423,16.10161 18.30756,15.81249"
           style="fill:none;stroke:#000000;stroke-opacity:1;stroke-width:2;stroke-linecap:butt;stroke-linejoin:round;stroke-miterlimit:10;stroke-dasharray:none"
           id="path3809" /><path
           d="m 60.35909,145.05472 40.60831,-13.18977 41.12141,-13.35644"
           style="fill:none;stroke:#000000;stroke-opacity:1;stroke-width:2;stroke-linecap:butt;stroke-linejoin:round;stroke-miterlimit:10;stroke-dasharray:none"
           id="path3811" /><path
           d="M 87.565549,167.51485 127.906,154.60645 168.75066,141.5367"
           style="fill:none;stroke:#000000;stroke-opacity:1;stroke-width:2;stroke-linecap:butt;stroke-linejoin:round;stroke-miterlimit:10;stroke-dasharray:none"
           id="path3813" /><path
           d="m 114.19645,189.49984 40.07477,-12.63595 40.57028,-12.79218"
           style="fill:none;stroke:#000000;stroke-opacity:1;stroke-width:2;stroke-linecap:butt;stroke-linejoin:round;stroke-miterlimit:10;stroke-dasharray:none"
           id="path3815" /><path
           d="m 140.26988,211.0246 39.81128,-12.37202 40.29832,-12.52337"
           style="fill:none;stroke:#000000;stroke-opacity:1;stroke-width:2;stroke-linecap:butt;stroke-linejoin:round;stroke-miterlimit:10;stroke-dasharray:none"
           id="path3817" /><path
           d="m 165.80315,232.10343 39.55003,-12.11627 40.02881,-12.26295"
           style="fill:none;stroke:#000000;stroke-opacity:1;stroke-width:2;stroke-linecap:butt;stroke-linejoin:round;stroke-miterlimit:10;stroke-dasharray:none"
           id="path3819" /><path
           d="m 190.81287,252.75006 39.29106,-11.86838 39.76177,-12.01056"
           style="fill:none;stroke:#000000;stroke-opacity:1;stroke-width:2;stroke-linecap:butt;stroke-linejoin:round;stroke-miterlimit:10;stroke-dasharray:none"
           id="path3821" /><path
           d="m 215.31499,272.97764 39.03438,-11.62801 39.49722,-11.76589"
           style="fill:none;stroke:#000000;stroke-opacity:1;stroke-width:2;stroke-linecap:butt;stroke-linejoin:round;stroke-miterlimit:10;stroke-dasharray:none"
           id="path3823" /><path
           d="m 239.3248,292.7988 38.78003,-11.39488 39.23516,-11.52861"
           style="fill:none;stroke:#000000;stroke-opacity:1;stroke-width:2;stroke-linecap:butt;stroke-linejoin:round;stroke-miterlimit:10;stroke-dasharray:none"
           id="path3825" /><path
           d="m 262.857,312.22566 38.52799,-11.16868 38.97563,-11.29845"
           style="fill:none;stroke:#000000;stroke-opacity:1;stroke-width:2;stroke-linecap:butt;stroke-linejoin:round;stroke-miterlimit:10;stroke-dasharray:none"
           id="path3827" /><path
           d="m 285.92569,331.26988 38.27831,-10.94916 38.7186,-11.0751"
           style="fill:none;stroke:#000000;stroke-opacity:1;stroke-width:2;stroke-linecap:butt;stroke-linejoin:round;stroke-miterlimit:10;stroke-dasharray:none"
           id="path3829" /><path
           d="m 308.54444,349.94265 38.03097,-10.73604 38.4641,-10.85832"
           style="fill:none;stroke:#000000;stroke-opacity:1;stroke-width:2;stroke-linecap:butt;stroke-linejoin:round;stroke-miterlimit:10;stroke-dasharray:none"
           id="path3831" /><path
           d="m 330.72628,368.25474 37.78598,-10.52909 38.21213,-10.64784"
           style="fill:none;stroke:#000000;stroke-opacity:1;stroke-width:2;stroke-linecap:butt;stroke-linejoin:round;stroke-miterlimit:10;stroke-dasharray:none"
           id="path3833" /><path
           d="m 352.48375,386.21649 37.54335,-10.32806 37.96268,-10.44342"
           style="fill:none;stroke:#000000;stroke-opacity:1;stroke-width:2;stroke-linecap:butt;stroke-linejoin:round;stroke-miterlimit:10;stroke-dasharray:none"
           id="path3835" /><path
           d="M 373.82891,403.83786 411.132,393.70512 448.84772,383.4603"
           style="fill:none;stroke:#000000;stroke-opacity:1;stroke-width:2;stroke-linecap:butt;stroke-linejoin:round;stroke-miterlimit:10;stroke-dasharray:none"
           id="path3837" /><path
           d="m 394.77338,421.12844 37.06516,-9.9429 37.47128,-10.05185"
           style="fill:none;stroke:#000000;stroke-opacity:1;stroke-width:2;stroke-linecap:butt;stroke-linejoin:round;stroke-miterlimit:10;stroke-dasharray:none"
           id="path3839" /><path
           d="m 415.32833,438.09745 36.82958,-9.75835 37.22933,-9.86427"
           style="fill:none;stroke:#000000;stroke-opacity:1;stroke-width:2;stroke-linecap:butt;stroke-linejoin:round;stroke-miterlimit:10;stroke-dasharray:none"
           id="path3841" /><path
           d="m 435.50452,454.75379 36.59635,-9.57889 36.98987,-9.6819"
           style="fill:none;stroke:#000000;stroke-opacity:1;stroke-width:2;stroke-linecap:butt;stroke-linejoin:round;stroke-miterlimit:10;stroke-dasharray:none"
           id="path3843" /><path
           d="m 455.31234,471.10601 36.36544,-9.40434 36.75287,-9.50453"
           style="fill:none;stroke:#000000;stroke-opacity:1;stroke-width:2;stroke-linecap:butt;stroke-linejoin:round;stroke-miterlimit:10;stroke-dasharray:none"
           id="path3845" /><path
           d="m 474.76177,487.16238 36.13685,-9.23452 36.51833,-9.332"
           style="fill:none;stroke:#000000;stroke-opacity:1;stroke-width:2;stroke-linecap:butt;stroke-linejoin:round;stroke-miterlimit:10;stroke-dasharray:none"
           id="path3847" /><path
           d="m 493.86246,502.93084 35.91057,-9.06925 36.28622,-9.16412"
           style="fill:none;stroke:#000000;stroke-opacity:1;stroke-width:2;stroke-linecap:butt;stroke-linejoin:round;stroke-miterlimit:10;stroke-dasharray:none"
           id="path3849" /><path
           d="m 512.62371,518.41907 35.68657,-8.90838 36.05653,-9.00073"
           style="fill:none;stroke:#000000;stroke-opacity:1;stroke-width:2;stroke-linecap:butt;stroke-linejoin:round;stroke-miterlimit:10;stroke-dasharray:none"
           id="path3851" /><path
           d="M 87.565549,167.51485 127.906,154.60645 168.75066,141.5367"
           style="fill:none;stroke:#000000;stroke-opacity:1;stroke-width:2;stroke-linecap:butt;stroke-linejoin:round;stroke-miterlimit:10;stroke-dasharray:none"
           id="path3853" /><path
           d="m 114.19645,189.49984 40.07477,-12.63595 40.57028,-12.79218"
           style="fill:none;stroke:#000000;stroke-opacity:1;stroke-width:2;stroke-linecap:butt;stroke-linejoin:round;stroke-miterlimit:10;stroke-dasharray:none"
           id="path3855" /><path
           d="m 140.26988,211.0246 39.81128,-12.37202 40.29832,-12.52337"
           style="fill:none;stroke:#000000;stroke-opacity:1;stroke-width:2;stroke-linecap:butt;stroke-linejoin:round;stroke-miterlimit:10;stroke-dasharray:none"
           id="path3857" /><path
           d="m 165.80315,232.10343 39.55003,-12.11627 40.02881,-12.26295"
           style="fill:none;stroke:#000000;stroke-opacity:1;stroke-width:2;stroke-linecap:butt;stroke-linejoin:round;stroke-miterlimit:10;stroke-dasharray:none"
           id="path3859" /><path
           d="m 190.81287,252.75006 39.29106,-11.86838 39.76177,-12.01056"
           style="fill:none;stroke:#000000;stroke-opacity:1;stroke-width:2;stroke-linecap:butt;stroke-linejoin:round;stroke-miterlimit:10;stroke-dasharray:none"
           id="path3861" /><path
           d="m 215.31499,272.97764 39.03438,-11.62801 39.49722,-11.76589"
           style="fill:none;stroke:#000000;stroke-opacity:1;stroke-width:2;stroke-linecap:butt;stroke-linejoin:round;stroke-miterlimit:10;stroke-dasharray:none"
           id="path3863" /><path
           d="m 239.3248,292.7988 38.78003,-11.39488 39.23516,-11.52861"
           style="fill:none;stroke:#000000;stroke-opacity:1;stroke-width:2;stroke-linecap:butt;stroke-linejoin:round;stroke-miterlimit:10;stroke-dasharray:none"
           id="path3865" /><path
           d="m 262.857,312.22566 38.52799,-11.16868 38.97563,-11.29845"
           style="fill:none;stroke:#000000;stroke-opacity:1;stroke-width:2;stroke-linecap:butt;stroke-linejoin:round;stroke-miterlimit:10;stroke-dasharray:none"
           id="path3867" /><path
           d="m 285.92569,331.26988 38.27831,-10.94916 38.7186,-11.0751"
           style="fill:none;stroke:#000000;stroke-opacity:1;stroke-width:2;stroke-linecap:butt;stroke-linejoin:round;stroke-miterlimit:10;stroke-dasharray:none"
           id="path3869" /><path
           d="m 308.54444,349.94265 38.03097,-10.73604 38.4641,-10.85832"
           style="fill:none;stroke:#000000;stroke-opacity:1;stroke-width:2;stroke-linecap:butt;stroke-linejoin:round;stroke-miterlimit:10;stroke-dasharray:none"
           id="path3871" /><path
           d="m 330.72628,368.25474 37.78598,-10.52909 38.21213,-10.64784"
           style="fill:none;stroke:#000000;stroke-opacity:1;stroke-width:2;stroke-linecap:butt;stroke-linejoin:round;stroke-miterlimit:10;stroke-dasharray:none"
           id="path3873" /><path
           d="m 352.48375,386.21649 37.54335,-10.32806 37.96268,-10.44342"
           style="fill:none;stroke:#000000;stroke-opacity:1;stroke-width:2;stroke-linecap:butt;stroke-linejoin:round;stroke-miterlimit:10;stroke-dasharray:none"
           id="path3875" /><path
           d="M 373.82891,403.83786 411.132,393.70512 448.84772,383.4603"
           style="fill:none;stroke:#000000;stroke-opacity:1;stroke-width:2;stroke-linecap:butt;stroke-linejoin:round;stroke-miterlimit:10;stroke-dasharray:none"
           id="path3877" /><path
           d="m 394.77338,421.12844 37.06516,-9.9429 37.47128,-10.05185"
           style="fill:none;stroke:#000000;stroke-opacity:1;stroke-width:2;stroke-linecap:butt;stroke-linejoin:round;stroke-miterlimit:10;stroke-dasharray:none"
           id="path3879" /><path
           d="m 415.32833,438.09745 36.82958,-9.75835 37.22933,-9.86427"
           style="fill:none;stroke:#000000;stroke-opacity:1;stroke-width:2;stroke-linecap:butt;stroke-linejoin:round;stroke-miterlimit:10;stroke-dasharray:none"
           id="path3881" /><path
           d="m 435.50452,454.75379 36.59635,-9.57889 36.98987,-9.6819"
           style="fill:none;stroke:#000000;stroke-opacity:1;stroke-width:2;stroke-linecap:butt;stroke-linejoin:round;stroke-miterlimit:10;stroke-dasharray:none"
           id="path3883" /><path
           d="m 455.31234,471.10601 36.36544,-9.40434 36.75287,-9.50453"
           style="fill:none;stroke:#000000;stroke-opacity:1;stroke-width:2;stroke-linecap:butt;stroke-linejoin:round;stroke-miterlimit:10;stroke-dasharray:none"
           id="path3885" /><path
           d="m 474.76177,487.16238 36.13685,-9.23452 36.51833,-9.332"
           style="fill:none;stroke:#000000;stroke-opacity:1;stroke-width:2;stroke-linecap:butt;stroke-linejoin:round;stroke-miterlimit:10;stroke-dasharray:none"
           id="path3887" /><path
           d="m 493.86246,502.93084 35.91057,-9.06925 36.28622,-9.16412"
           style="fill:none;stroke:#000000;stroke-opacity:1;stroke-width:2;stroke-linecap:butt;stroke-linejoin:round;stroke-miterlimit:10;stroke-dasharray:none"
           id="path3889" /><path
           d="m 512.62371,518.41907 35.68657,-8.90838 36.05653,-9.00073"
           style="fill:none;stroke:#000000;stroke-opacity:1;stroke-width:2;stroke-linecap:butt;stroke-linejoin:round;stroke-miterlimit:10;stroke-dasharray:none"
           id="path3891" /></g></g><g
       id="g3893"><path
         d="m 690.9603,30.756 625.2882,0 0,609.528 -625.2882,0 0,-609.528 z"
         style="fill:#ffffff;fill-opacity:1;fill-rule:nonzero;stroke:none"
         id="path3895" /></g><g
       id="g3897"><g
         id="g3899"
         clip-path="url(#clipPath3901)"><path
           d="m 689.61169,162.72147 78.52694,5.75536 44.91191,16.14918 22.7172,22.55871 12.21953,25.12505 13.13517,24.14812 21.69672,20.94154 24.41634,19.57643 18.17261,20.85603 3.27234,24.55304 -19.72986,30.38522 64.60829,6.17558 41.13212,12.45675 26.3335,16.15146 20.3253,17.3578 22.9604,16.23656 30.9113,13.76872 31.5741,13.26863 21.9284,15.41292 2.2494,20.00887 -26.7869,26.77494"
           style="fill:none;stroke:#000000;stroke-opacity:1;stroke-width:2;stroke-linecap:butt;stroke-linejoin:round;stroke-miterlimit:10;stroke-dasharray:none"
           id="path3905" /><path
           d="m 729.68445,149.75327 78.90301,5.82714 44.87216,16.34951 22.41066,22.83591 11.79587,25.43015 12.73457,24.43778 21.40843,21.18987 24.16849,19.80618 17.8603,21.09825 2.7988,24.83482 -20.44947,30.7289 64.84503,6.24475 41.1085,12.59557 26.1501,16.33006 20.0821,17.54798 22.7522,16.4128 30.7942,13.91694 31.4684,13.41037 21.7249,15.57625 1.8458,20.21875 -27.4799,27.05202"
           style="fill:none;stroke:#000000;stroke-opacity:1;stroke-width:2;stroke-linecap:butt;stroke-linejoin:round;stroke-miterlimit:10;stroke-dasharray:none"
           id="path3907" /><path
           d="m 770.25923,136.62261 79.28237,5.90027 44.82795,16.55359 22.09482,23.11825 11.36094,25.74085 12.32337,24.73267 21.11172,21.44265 23.9131,20.04 17.5395,21.34471 2.3141,25.12148 -21.18423,31.07844 65.08303,6.31509 41.0818,12.73672 25.9611,16.51163 19.8322,17.74131 22.5382,16.59194 30.6727,14.06755 31.3586,13.5544 21.5158,15.74219 1.4336,20.43195 -28.1859,27.33342"
           style="fill:none;stroke:#000000;stroke-opacity:1;stroke-width:2;stroke-linecap:butt;stroke-linejoin:round;stroke-miterlimit:10;stroke-dasharray:none"
           id="path3909" /><path
           d="m 689.61169,162.72147 40.07276,-12.9682 40.57478,-13.13066"
           style="fill:none;stroke:#000000;stroke-opacity:1;stroke-width:2;stroke-linecap:butt;stroke-linejoin:round;stroke-miterlimit:10;stroke-dasharray:none"
           id="path3911" /><path
           d="m 768.13863,168.47683 40.44883,-12.89642 40.95414,-13.05753"
           style="fill:none;stroke:#000000;stroke-opacity:1;stroke-width:2;stroke-linecap:butt;stroke-linejoin:round;stroke-miterlimit:10;stroke-dasharray:none"
           id="path3913" /><path
           d="m 813.05054,184.62601 40.40908,-12.69609 40.90993,-12.85345"
           style="fill:none;stroke:#000000;stroke-opacity:1;stroke-width:2;stroke-linecap:butt;stroke-linejoin:round;stroke-miterlimit:10;stroke-dasharray:none"
           id="path3915" /><path
           d="m 835.76774,207.18472 40.10254,-12.41889 40.59409,-12.57111"
           style="fill:none;stroke:#000000;stroke-opacity:1;stroke-width:2;stroke-linecap:butt;stroke-linejoin:round;stroke-miterlimit:10;stroke-dasharray:none"
           id="path3917" /><path
           d="m 847.98727,232.30977 39.67888,-12.11379 40.15916,-12.26041"
           style="fill:none;stroke:#000000;stroke-opacity:1;stroke-width:2;stroke-linecap:butt;stroke-linejoin:round;stroke-miterlimit:10;stroke-dasharray:none"
           id="path3919" /><path
           d="m 861.12244,256.45789 39.27828,-11.82413 39.74796,-11.96552"
           style="fill:none;stroke:#000000;stroke-opacity:1;stroke-width:2;stroke-linecap:butt;stroke-linejoin:round;stroke-miterlimit:10;stroke-dasharray:none"
           id="path3921" /><path
           d="m 882.81916,277.39943 38.98999,-11.5758 39.45125,-11.71274"
           style="fill:none;stroke:#000000;stroke-opacity:1;stroke-width:2;stroke-linecap:butt;stroke-linejoin:round;stroke-miterlimit:10;stroke-dasharray:none"
           id="path3923" /><path
           d="m 907.2355,296.97586 38.74214,-11.34605 39.19586,-11.47892"
           style="fill:none;stroke:#000000;stroke-opacity:1;stroke-width:2;stroke-linecap:butt;stroke-linejoin:round;stroke-miterlimit:10;stroke-dasharray:none"
           id="path3925" /><path
           d="M 925.40811,317.83189 963.83794,306.72806 1002.713,295.4956"
           style="fill:none;stroke:#000000;stroke-opacity:1;stroke-width:2;stroke-linecap:butt;stroke-linejoin:round;stroke-miterlimit:10;stroke-dasharray:none"
           id="path3927" /><path
           d="m 928.68045,342.38493 37.95629,-10.82205 38.39036,-10.9458"
           style="fill:none;stroke:#000000;stroke-opacity:1;stroke-width:2;stroke-linecap:butt;stroke-linejoin:round;stroke-miterlimit:10;stroke-dasharray:none"
           id="path3929" /><path
           d="m 908.95059,372.77015 37.23668,-10.47837 37.6556,-10.59626"
           style="fill:none;stroke:#000000;stroke-opacity:1;stroke-width:2;stroke-linecap:butt;stroke-linejoin:round;stroke-miterlimit:10;stroke-dasharray:none"
           id="path3931" /><path
           d="m 973.55888,378.94573 37.47342,-10.4092 37.8936,-10.52592"
           style="fill:none;stroke:#000000;stroke-opacity:1;stroke-width:2;stroke-linecap:butt;stroke-linejoin:round;stroke-miterlimit:10;stroke-dasharray:none"
           id="path3933" /><path
           d="m 1014.691,391.40248 37.4498,-10.27038 37.8669,-10.38477"
           style="fill:none;stroke:#000000;stroke-opacity:1;stroke-width:2;stroke-linecap:butt;stroke-linejoin:round;stroke-miterlimit:10;stroke-dasharray:none"
           id="path3935" /><path
           d="m 1041.0245,407.55394 37.2664,-10.09178 37.6779,-10.2032"
           style="fill:none;stroke:#000000;stroke-opacity:1;stroke-width:2;stroke-linecap:butt;stroke-linejoin:round;stroke-miterlimit:10;stroke-dasharray:none"
           id="path3937" /><path
           d="m 1061.3498,424.91174 37.0232,-9.9016 37.428,-10.00987"
           style="fill:none;stroke:#000000;stroke-opacity:1;stroke-width:2;stroke-linecap:butt;stroke-linejoin:round;stroke-miterlimit:10;stroke-dasharray:none"
           id="path3939" /><path
           d="m 1084.3102,441.1483 36.815,-9.72536 37.214,-9.83073"
           style="fill:none;stroke:#000000;stroke-opacity:1;stroke-width:2;stroke-linecap:butt;stroke-linejoin:round;stroke-miterlimit:10;stroke-dasharray:none"
           id="path3941" /><path
           d="m 1115.2215,454.91702 36.6979,-9.57714 37.0925,-9.68012"
           style="fill:none;stroke:#000000;stroke-opacity:1;stroke-width:2;stroke-linecap:butt;stroke-linejoin:round;stroke-miterlimit:10;stroke-dasharray:none"
           id="path3943" /><path
           d="m 1146.7956,468.18565 36.5922,-9.4354 36.9827,-9.53609"
           style="fill:none;stroke:#000000;stroke-opacity:1;stroke-width:2;stroke-linecap:butt;stroke-linejoin:round;stroke-miterlimit:10;stroke-dasharray:none"
           id="path3945" /><path
           d="m 1168.724,483.59857 36.3887,-9.27207 36.7736,-9.37015"
           style="fill:none;stroke:#000000;stroke-opacity:1;stroke-width:2;stroke-linecap:butt;stroke-linejoin:round;stroke-miterlimit:10;stroke-dasharray:none"
           id="path3947" /><path
           d="m 1170.9734,503.60744 35.9851,-9.06219 36.3614,-9.15695"
           style="fill:none;stroke:#000000;stroke-opacity:1;stroke-width:2;stroke-linecap:butt;stroke-linejoin:round;stroke-miterlimit:10;stroke-dasharray:none"
           id="path3949" /><path
           d="m 1144.1865,530.38238 35.2921,-8.78511 35.6554,-8.87555"
           style="fill:none;stroke:#000000;stroke-opacity:1;stroke-width:2;stroke-linecap:butt;stroke-linejoin:round;stroke-miterlimit:10;stroke-dasharray:none"
           id="path3951" /></g></g></g></svg>