<?xml version="1.0" encoding="UTF-8" standalone="no"?>
<!-- Created with Inkscape (http://www.inkscape.org/) -->

<svg
   xmlns:dc="http://purl.org/dc/elements/1.1/"
   xmlns:cc="http://creativecommons.org/ns#"
   xmlns:rdf="http://www.w3.org/1999/02/22-rdf-syntax-ns#"
   xmlns:svg="http://www.w3.org/2000/svg"
   xmlns="http://www.w3.org/2000/svg"
   xmlns:sodipodi="http://sodipodi.sourceforge.net/DTD/sodipodi-0.dtd"
   xmlns:inkscape="http://www.inkscape.org/namespaces/inkscape"
   id="svg3055"
   version="1.1"
   inkscape:version="0.48.4 r9939"
   width="900"
   height="720"
   xml:space="preserve"
   sodipodi:docname="bspline.pdf"><options
     id="options3061"><rdf:RDF><cc:Work
         rdf:about=""><dc:format>image/svg+xml</dc:format><dc:type
           rdf:resource="http://purl.org/dc/dcmitype/StillImage" /><dc:title></dc:title></cc:Work></rdf:RDF></options><defs
     id="defs3059"><clipPath
       clipPathUnits="userSpaceOnUse"
       id="clipPath3073"><path
         d="m 90,63.36 558,0 0,443.52 -558,0 0,-443.52 z"
         id="path3075" /></clipPath><clipPath
       clipPathUnits="userSpaceOnUse"
       id="clipPath3083"><path
         d="m -4.3729833,-4.3729833 8.7459666,0 0,8.7459666 -8.7459666,0 0,-8.7459666 z"
         id="path3085" /></clipPath><clipPath
       clipPathUnits="userSpaceOnUse"
       id="clipPath3095"><path
         d="m -4.3729833,-4.3729833 8.7459666,0 0,8.7459666 -8.7459666,0 0,-8.7459666 z"
         id="path3097" /></clipPath><clipPath
       clipPathUnits="userSpaceOnUse"
       id="clipPath3107"><path
         d="m -4.3729833,-4.3729833 8.7459666,0 0,8.7459666 -8.7459666,0 0,-8.7459666 z"
         id="path3109" /></clipPath><clipPath
       clipPathUnits="userSpaceOnUse"
       id="clipPath3119"><path
         d="m -4.3729833,-4.3729833 8.7459666,0 0,8.7459666 -8.7459666,0 0,-8.7459666 z"
         id="path3121" /></clipPath><clipPath
       clipPathUnits="userSpaceOnUse"
       id="clipPath3131"><path
         d="m -4.3729833,-4.3729833 8.7459666,0 0,8.7459666 -8.7459666,0 0,-8.7459666 z"
         id="path3133" /></clipPath><clipPath
       clipPathUnits="userSpaceOnUse"
       id="clipPath3229"><path
         d="m 90,63.36 558,0 0,443.52 -558,0 0,-443.52 z"
         id="path3231" /></clipPath></defs><sodipodi:namedview
     pagecolor="#ffffff"
     bordercolor="#666666"
     borderopacity="1"
     objecttolerance="10"
     gridtolerance="10"
     guidetolerance="10"
     inkscape:pageopacity="0"
     inkscape:pageshadow="2"
     inkscape:window-width="640"
     inkscape:window-height="480"
     id="namedview3057"
     showgrid="false"
     inkscape:zoom="0.32777778"
     inkscape:cx="450"
     inkscape:cy="360"
     inkscape:window-x="113"
     inkscape:window-y="51"
     inkscape:window-maximized="0"
     inkscape:current-layer="g3063" /><g
     id="g3063"
     inkscape:groupmode="layer"
     inkscape:label="bspline"
     transform="matrix(1.25,0,0,-1.25,0,720)"><path
       d="M 0,0 720,0 720,576 0,576 0,0 z"
       style="fill:#ffffff;fill-opacity:1;fill-rule:nonzero;stroke:none"
       id="path3065" /><path
       d="m 90,63.36 558,0 0,443.52 -558,0 0,-443.52 z"
       style="fill:#ffffff;fill-opacity:1;fill-rule:nonzero;stroke:none"
       id="path3067" /><g
       id="g3069"><g
         id="g3071"
         clip-path="url(#clipPath3073)"><g
           id="g3077"
           transform="translate(117.66633,85.385491)"><g
             id="g3079"><g
               id="g3081"
               clip-path="url(#clipPath3083)"><path
                 d="m 0,-3.872983 c 1.027127,0 2.012324,0.408082 2.738613,1.13437 0.726288,0.726289 1.13437,1.711486 1.13437,2.738613 0,1.027127 -0.408082,2.012324 -1.13437,2.738613 C 2.012324,3.464901 1.027127,3.872983 0,3.872983 c -1.027127,0 -2.012324,-0.408082 -2.738613,-1.13437 C -3.464901,2.012324 -3.872983,1.027127 -3.872983,0 c 0,-1.027127 0.408082,-2.012324 1.13437,-2.738613 C -2.012324,-3.464901 -1.027127,-3.872983 0,-3.872983 z"
                 style="fill:#55a868;fill-opacity:1;fill-rule:nonzero;stroke:#55a868;stroke-opacity:1;stroke-width:1;stroke-linecap:butt;stroke-linejoin:round;stroke-miterlimit:10;stroke-dasharray:none"
                 id="path3087" /></g></g><g
             id="g3089"
             transform="translate(125.66684,36.094694)"><g
               id="g3091"><g
                 id="g3093"
                 clip-path="url(#clipPath3095)"><path
                   d="m 0,-3.872983 c 1.027127,0 2.012324,0.408082 2.738613,1.13437 0.726288,0.726289 1.13437,1.711486 1.13437,2.738613 0,1.027127 -0.408082,2.012324 -1.13437,2.738613 C 2.012324,3.464901 1.027127,3.872983 0,3.872983 c -1.027127,0 -2.012324,-0.408082 -2.738613,-1.13437 C -3.464901,2.012324 -3.872983,1.027127 -3.872983,0 c 0,-1.027127 0.408082,-2.012324 1.13437,-2.738613 C -2.012324,-3.464901 -1.027127,-3.872983 0,-3.872983 z"
                   style="fill:#55a868;fill-opacity:1;fill-rule:nonzero;stroke:#55a868;stroke-opacity:1;stroke-width:1;stroke-linecap:butt;stroke-linejoin:round;stroke-miterlimit:10;stroke-dasharray:none"
                   id="path3099" /></g></g><g
               id="g3101"
               transform="translate(125.66684,363.37432)"><g
                 id="g3103"><g
                   id="g3105"
                   clip-path="url(#clipPath3107)"><path
                     d="m 0,-3.872983 c 1.027127,0 2.012324,0.408082 2.738613,1.13437 0.726288,0.726289 1.13437,1.711486 1.13437,2.738613 0,1.027127 -0.408082,2.012324 -1.13437,2.738613 C 2.012324,3.464901 1.027127,3.872983 0,3.872983 c -1.027127,0 -2.012324,-0.408082 -2.738613,-1.13437 C -3.464901,2.012324 -3.872983,1.027127 -3.872983,0 c 0,-1.027127 0.408082,-2.012324 1.13437,-2.738613 C -2.012324,-3.464901 -1.027127,-3.872983 0,-3.872983 z"
                     style="fill:#55a868;fill-opacity:1;fill-rule:nonzero;stroke:#55a868;stroke-opacity:1;stroke-width:1;stroke-linecap:butt;stroke-linejoin:round;stroke-miterlimit:10;stroke-dasharray:none"
                     id="path3111" /></g></g><g
                 id="g3113"
                 transform="translate(125.66684,-105.61952)"><g
                   id="g3115"><g
                     id="g3117"
                     clip-path="url(#clipPath3119)"><path
                       d="m 0,-3.872983 c 1.027127,0 2.012324,0.408082 2.738613,1.13437 0.726288,0.726289 1.13437,1.711486 1.13437,2.738613 0,1.027127 -0.408082,2.012324 -1.13437,2.738613 C 2.012324,3.464901 1.027127,3.872983 0,3.872983 c -1.027127,0 -2.012324,-0.408082 -2.738613,-1.13437 C -3.464901,2.012324 -3.872983,1.027127 -3.872983,0 c 0,-1.027127 0.408082,-2.012324 1.13437,-2.738613 C -2.012324,-3.464901 -1.027127,-3.872983 0,-3.872983 z"
                       style="fill:#55a868;fill-opacity:1;fill-rule:nonzero;stroke:#55a868;stroke-opacity:1;stroke-width:1;stroke-linecap:butt;stroke-linejoin:round;stroke-miterlimit:10;stroke-dasharray:none"
                       id="path3123" /></g></g><g
                   id="g3125"
                   transform="translate(125.66684,29.831164)"><g
                     id="g3127"><g
                       id="g3129"
                       clip-path="url(#clipPath3131)"><path
                         d="m 0,-3.872983 c 1.027127,0 2.012324,0.408082 2.738613,1.13437 0.726288,0.726289 1.13437,1.711486 1.13437,2.738613 0,1.027127 -0.408082,2.012324 -1.13437,2.738613 C 2.012324,3.464901 1.027127,3.872983 0,3.872983 c -1.027127,0 -2.012324,-0.408082 -2.738613,-1.13437 C -3.464901,2.012324 -3.872983,1.027127 -3.872983,0 c 0,-1.027127 0.408082,-2.012324 1.13437,-2.738613 C -2.012324,-3.464901 -1.027127,-3.872983 0,-3.872983 z"
                         style="fill:#55a868;fill-opacity:1;fill-rule:nonzero;stroke:#55a868;stroke-opacity:1;stroke-width:1;stroke-linecap:butt;stroke-linejoin:round;stroke-miterlimit:10;stroke-dasharray:none"
                         id="path3135" /></g></g></g></g></g></g></g></g></g><g
       id="g3137"><path
         d="m 117.66633,63.36 0,-3.5"
         style="fill:#000000;fill-opacity:1;fill-rule:nonzero;stroke:#000000;stroke-opacity:1;stroke-width:0.8;stroke-linecap:butt;stroke-linejoin:round;stroke-miterlimit:10;stroke-dasharray:none"
         id="path3139" /><text
         transform="matrix(1,0,0,-1,104.93195,44.20375)"
         id="text3141"><tspan
           style="fill:#000000;fill-opacity:1;fill-rule:nonzero;stroke:none;font-family:DejaVu Sans;font-variant:normal;font-weight:normal;font-size:16;writing-mode:lr;-inkscape-font-specification:DejaVuSans"
           x="0 10.176 15.264"
           y="0"
           sodipodi:role="line"
           id="tspan3143">0.0</tspan></text>
<path
         d="m 218.1998,63.36 0,-3.5"
         style="fill:#000000;fill-opacity:1;fill-rule:nonzero;stroke:#000000;stroke-opacity:1;stroke-width:0.8;stroke-linecap:butt;stroke-linejoin:round;stroke-miterlimit:10;stroke-dasharray:none"
         id="path3145" /><text
         transform="matrix(1,0,0,-1,205.46542,44.20375)"
         id="text3147"><tspan
           style="fill:#000000;fill-opacity:1;fill-rule:nonzero;stroke:none;font-family:DejaVu Sans;font-variant:normal;font-weight:normal;font-size:16;writing-mode:lr;-inkscape-font-specification:DejaVuSans"
           x="0 10.176 15.264"
           y="0"
           sodipodi:role="line"
           id="tspan3149">0.2</tspan></text>
<path
         d="m 318.73327,63.36 0,-3.5"
         style="fill:#000000;fill-opacity:1;fill-rule:nonzero;stroke:#000000;stroke-opacity:1;stroke-width:0.8;stroke-linecap:butt;stroke-linejoin:round;stroke-miterlimit:10;stroke-dasharray:none"
         id="path3151" /><text
         transform="matrix(1,0,0,-1,305.99889,44.20375)"
         id="text3153"><tspan
           style="fill:#000000;fill-opacity:1;fill-rule:nonzero;stroke:none;font-family:DejaVu Sans;font-variant:normal;font-weight:normal;font-size:16;writing-mode:lr;-inkscape-font-specification:DejaVuSans"
           x="0 10.176 15.264"
           y="0"
           sodipodi:role="line"
           id="tspan3155">0.4</tspan></text>
<path
         d="m 419.26673,63.36 0,-3.5"
         style="fill:#000000;fill-opacity:1;fill-rule:nonzero;stroke:#000000;stroke-opacity:1;stroke-width:0.8;stroke-linecap:butt;stroke-linejoin:round;stroke-miterlimit:10;stroke-dasharray:none"
         id="path3157" /><text
         transform="matrix(1,0,0,-1,406.53236,44.20375)"
         id="text3159"><tspan
           style="fill:#000000;fill-opacity:1;fill-rule:nonzero;stroke:none;font-family:DejaVu Sans;font-variant:normal;font-weight:normal;font-size:16;writing-mode:lr;-inkscape-font-specification:DejaVuSans"
           x="0 10.176 15.264"
           y="0"
           sodipodi:role="line"
           id="tspan3161">0.6</tspan></text>
<path
         d="m 519.8002,63.36 0,-3.5"
         style="fill:#000000;fill-opacity:1;fill-rule:nonzero;stroke:#000000;stroke-opacity:1;stroke-width:0.8;stroke-linecap:butt;stroke-linejoin:round;stroke-miterlimit:10;stroke-dasharray:none"
         id="path3163" /><text
         transform="matrix(1,0,0,-1,507.06583,44.20375)"
         id="text3165"><tspan
           style="fill:#000000;fill-opacity:1;fill-rule:nonzero;stroke:none;font-family:DejaVu Sans;font-variant:normal;font-weight:normal;font-size:16;writing-mode:lr;-inkscape-font-specification:DejaVuSans"
           x="0 10.176 15.264"
           y="0"
           sodipodi:role="line"
           id="tspan3167">0.8</tspan></text>
<path
         d="m 620.33367,63.36 0,-3.5"
         style="fill:#000000;fill-opacity:1;fill-rule:nonzero;stroke:#000000;stroke-opacity:1;stroke-width:0.8;stroke-linecap:butt;stroke-linejoin:round;stroke-miterlimit:10;stroke-dasharray:none"
         id="path3169" /><text
         transform="matrix(1,0,0,-1,607.5993,44.20375)"
         id="text3171"><tspan
           style="fill:#000000;fill-opacity:1;fill-rule:nonzero;stroke:none;font-family:DejaVu Sans;font-variant:normal;font-weight:normal;font-size:16;writing-mode:lr;-inkscape-font-specification:DejaVuSans"
           x="0 10.176 15.264"
           y="0"
           sodipodi:role="line"
           id="tspan3173">1.0</tspan></text>
<text
         transform="matrix(1,0,0,-1,279.6875,24.719375)"
         id="text3175"><tspan
           style="fill:#000000;fill-opacity:1;fill-rule:nonzero;stroke:none;font-family:DejaVu Sans;font-variant:normal;font-weight:normal;font-size:16;writing-mode:lr;-inkscape-font-specification:DejaVuSans"
           x="0 11.968 21.76 28.336 43.92 53.728 58.176 62.624 71.024 80.864 91.024 96.112 104.448 114.288 129.872 134.32 140.096 148.432 158.592 168.4"
           y="0"
           sodipodi:role="line"
           id="tspan3177">Normalized semi-span</tspan></text>
<path
         d="m 90,90.526804 -3.5,0"
         style="fill:#000000;fill-opacity:1;fill-rule:nonzero;stroke:#000000;stroke-opacity:1;stroke-width:0.8;stroke-linecap:butt;stroke-linejoin:round;stroke-miterlimit:10;stroke-dasharray:none"
         id="path3179" /><text
         transform="matrix(1,0,0,-1,47.34375,84.448679)"
         id="text3181"><tspan
           style="fill:#000000;fill-opacity:1;fill-rule:nonzero;stroke:none;font-family:DejaVu Sans;font-variant:normal;font-weight:normal;font-size:16;writing-mode:lr;-inkscape-font-specification:DejaVuSans"
           x="0 10.176 15.264 25.44"
           y="0"
           sodipodi:role="line"
           id="tspan3183">0.65</tspan></text>
<path
         d="m 90,152.00526 -3.5,0"
         style="fill:#000000;fill-opacity:1;fill-rule:nonzero;stroke:#000000;stroke-opacity:1;stroke-width:0.8;stroke-linecap:butt;stroke-linejoin:round;stroke-miterlimit:10;stroke-dasharray:none"
         id="path3185" /><text
         transform="matrix(1,0,0,-1,47.34375,145.92713)"
         id="text3187"><tspan
           style="fill:#000000;fill-opacity:1;fill-rule:nonzero;stroke:none;font-family:DejaVu Sans;font-variant:normal;font-weight:normal;font-size:16;writing-mode:lr;-inkscape-font-specification:DejaVuSans"
           x="0 10.176 15.264 25.44"
           y="0"
           sodipodi:role="line"
           id="tspan3189">0.70</tspan></text>
<path
         d="m 90,213.48371 -3.5,0"
         style="fill:#000000;fill-opacity:1;fill-rule:nonzero;stroke:#000000;stroke-opacity:1;stroke-width:0.8;stroke-linecap:butt;stroke-linejoin:round;stroke-miterlimit:10;stroke-dasharray:none"
         id="path3191" /><text
         transform="matrix(1,0,0,-1,47.34375,207.40559)"
         id="text3193"><tspan
           style="fill:#000000;fill-opacity:1;fill-rule:nonzero;stroke:none;font-family:DejaVu Sans;font-variant:normal;font-weight:normal;font-size:16;writing-mode:lr;-inkscape-font-specification:DejaVuSans"
           x="0 10.176 15.264 25.44"
           y="0"
           sodipodi:role="line"
           id="tspan3195">0.75</tspan></text>
<path
         d="m 90,274.96217 -3.5,0"
         style="fill:#000000;fill-opacity:1;fill-rule:nonzero;stroke:#000000;stroke-opacity:1;stroke-width:0.8;stroke-linecap:butt;stroke-linejoin:round;stroke-miterlimit:10;stroke-dasharray:none"
         id="path3197" /><text
         transform="matrix(1,0,0,-1,47.34375,268.88404)"
         id="text3199"><tspan
           style="fill:#000000;fill-opacity:1;fill-rule:nonzero;stroke:none;font-family:DejaVu Sans;font-variant:normal;font-weight:normal;font-size:16;writing-mode:lr;-inkscape-font-specification:DejaVuSans"
           x="0 10.176 15.264 25.44"
           y="0"
           sodipodi:role="line"
           id="tspan3201">0.80</tspan></text>
<path
         d="m 90,336.44062 -3.5,0"
         style="fill:#000000;fill-opacity:1;fill-rule:nonzero;stroke:#000000;stroke-opacity:1;stroke-width:0.8;stroke-linecap:butt;stroke-linejoin:round;stroke-miterlimit:10;stroke-dasharray:none"
         id="path3203" /><text
         transform="matrix(1,0,0,-1,47.34375,330.36249)"
         id="text3205"><tspan
           style="fill:#000000;fill-opacity:1;fill-rule:nonzero;stroke:none;font-family:DejaVu Sans;font-variant:normal;font-weight:normal;font-size:16;writing-mode:lr;-inkscape-font-specification:DejaVuSans"
           x="0 10.176 15.264 25.44"
           y="0"
           sodipodi:role="line"
           id="tspan3207">0.85</tspan></text>
<path
         d="m 90,397.91907 -3.5,0"
         style="fill:#000000;fill-opacity:1;fill-rule:nonzero;stroke:#000000;stroke-opacity:1;stroke-width:0.8;stroke-linecap:butt;stroke-linejoin:round;stroke-miterlimit:10;stroke-dasharray:none"
         id="path3209" /><text
         transform="matrix(1,0,0,-1,47.34375,391.84095)"
         id="text3211"><tspan
           style="fill:#000000;fill-opacity:1;fill-rule:nonzero;stroke:none;font-family:DejaVu Sans;font-variant:normal;font-weight:normal;font-size:16;writing-mode:lr;-inkscape-font-specification:DejaVuSans"
           x="0 10.176 15.264 25.44"
           y="0"
           sodipodi:role="line"
           id="tspan3213">0.90</tspan></text>
<path
         d="m 90,459.39753 -3.5,0"
         style="fill:#000000;fill-opacity:1;fill-rule:nonzero;stroke:#000000;stroke-opacity:1;stroke-width:0.8;stroke-linecap:butt;stroke-linejoin:round;stroke-miterlimit:10;stroke-dasharray:none"
         id="path3215" /><text
         transform="matrix(1,0,0,-1,47.34375,453.3194)"
         id="text3217"><tspan
           style="fill:#000000;fill-opacity:1;fill-rule:nonzero;stroke:none;font-family:DejaVu Sans;font-variant:normal;font-weight:normal;font-size:16;writing-mode:lr;-inkscape-font-specification:DejaVuSans"
           x="0 10.176 15.264 25.44"
           y="0"
           sodipodi:role="line"
           id="tspan3219">0.95</tspan></text>
<text
         transform="matrix(0,1,1,0,40.015625,262.52625)"
         id="text3221"><tspan
           style="fill:#000000;fill-opacity:1;fill-rule:nonzero;stroke:none;font-family:DejaVu Sans;font-variant:normal;font-weight:normal;font-size:16;writing-mode:lr;-inkscape-font-specification:DejaVuSans"
           x="0 10.944 20.752 25.2 35.344"
           y="0"
           sodipodi:role="line"
           id="tspan3223">Value</tspan></text>
</g><g
       id="g3225"><g
         id="g3227"
         clip-path="url(#clipPath3229)"><path
           d="m 117.66633,85.385491 5.07745,2.363648 5.07745,2.707163 5.07744,3.037674 5.07745,3.355183 5.07745,3.659691 5.07745,3.95119 5.07744,4.22969 5.07745,4.4952 5.07745,4.74769 5.07745,4.98718 5.07745,5.21367 5.07744,5.42717 5.07745,5.62765 5.07745,5.81513 5.07745,5.98961 5.07745,6.15109 5.07744,6.29957 5.07745,6.43504 5.07745,6.55751 5.07745,6.66698 5.07744,6.76344 5.07745,6.84691 5.07745,6.91737 5.07745,6.97482 5.07745,7.01928 5.07744,7.05074 5.07745,7.06918 5.07745,7.07463 5.07745,7.06708 5.07745,7.04652 5.07744,7.01296 5.07745,6.96639 5.07745,6.90684 5.07745,6.83426 5.07745,6.74869 5.07744,6.65012 5.07745,6.53855 5.07745,6.41397 5.07745,6.27638 5.07745,6.12581 5.07744,5.96222 5.07745,5.78563 5.07745,5.59604 5.07745,5.39345 5.07744,5.17785 5.07745,4.94925 5.07745,4.70765 5.07745,4.45305 5.07745,4.18544 5.07744,3.90531 5.07745,3.62363 5.07745,3.35134 5.07745,3.08896 5.07745,2.83645 5.07744,2.59385 5.07745,2.36112 5.07745,2.13828 5.07745,1.92534 5.07744,1.72228 5.07745,1.52911 5.07745,1.34582 5.07745,1.17244 5.07745,1.00893 5.07744,0.85531 5.07745,0.71158 5.07745,0.57775 5.07745,0.45379 5.07745,0.33973 5.07744,0.23556 5.07745,0.14127 5.07745,0.0569 5.07745,-0.0176 5.07744,-0.0823 5.07745,-0.13699 5.07745,-0.18184 5.07745,-0.21679 5.07745,-0.24186 5.07744,-0.25704 5.07745,-0.26233 5.07745,-0.25773 5.07745,-0.24325 5.07745,-0.21887 5.07744,-0.18461 5.07745,-0.14046 5.07745,-0.0864 5.07745,-0.0225 5.07745,0.0513 5.07744,0.13503 5.07745,0.22862 5.07745,0.3321 5.07745,0.44548 5.07745,0.56873 5.07744,0.70188 5.07745,0.84492 5.07745,0.99783 5.07745,1.16065 5.07745,1.33335 5.07744,1.51594 5.07745,1.70841"
           style="fill:none;stroke:#4c72b0;stroke-opacity:1;stroke-width:3;stroke-linecap:square;stroke-linejoin:round;stroke-miterlimit:10;stroke-dasharray:none"
           id="path3233" /></g></g><g
       id="g3235"><path
         d="m 90,63.36 0,443.52"
         style="fill:none;stroke:#808080;stroke-opacity:1;stroke-width:0.5;stroke-linecap:square;stroke-linejoin:miter;stroke-miterlimit:10;stroke-dasharray:none"
         id="path3237" /><path
         d="m 648,63.36 0,443.52"
         style="fill:none;stroke:#808080;stroke-opacity:1;stroke-width:0.5;stroke-linecap:square;stroke-linejoin:miter;stroke-miterlimit:10;stroke-dasharray:none"
         id="path3239" /><path
         d="m 90,63.36 558,0"
         style="fill:none;stroke:#808080;stroke-opacity:1;stroke-width:0.5;stroke-linecap:square;stroke-linejoin:miter;stroke-miterlimit:10;stroke-dasharray:none"
         id="path3241" /><path
         d="m 90,506.88 558,0"
         style="fill:none;stroke:#808080;stroke-opacity:1;stroke-width:0.5;stroke-linecap:square;stroke-linejoin:miter;stroke-miterlimit:10;stroke-dasharray:none"
         id="path3243" /></g></g></svg>