<?xml version="1.0" encoding="UTF-8" standalone="no"?>
<!-- Created with Inkscape (http://www.inkscape.org/) -->

<svg
   xmlns:dc="http://purl.org/dc/elements/1.1/"
   xmlns:cc="http://creativecommons.org/ns#"
   xmlns:rdf="http://www.w3.org/1999/02/22-rdf-syntax-ns#"
   xmlns:svg="http://www.w3.org/2000/svg"
   xmlns="http://www.w3.org/2000/svg"
   xmlns:sodipodi="http://sodipodi.sourceforge.net/DTD/sodipodi-0.dtd"
   xmlns:inkscape="http://www.inkscape.org/namespaces/inkscape"
   id="svg3609"
   version="1.1"
   inkscape:version="0.48.4 r9939"
   width="1683.9"
   height="838.8"
   xml:space="preserve"
   sodipodi:docname="taper.pdf"><options
     id="options3615"><rdf:RDF><cc:Work
         rdf:about=""><dc:format>image/svg+xml</dc:format><dc:type
           rdf:resource="http://purl.org/dc/dcmitype/StillImage" /><dc:title></dc:title></cc:Work></rdf:RDF></options><defs
     id="defs3613"><clipPath
       clipPathUnits="userSpaceOnUse"
       id="clipPath3627"><path
         d="m 30.8715,30.756 625.2882,0 0,609.528 -625.2882,0 0,-609.528 z"
         id="path3629" /></clipPath><clipPath
       clipPathUnits="userSpaceOnUse"
       id="clipPath3727"><path
         d="m 690.9603,30.756 625.2882,0 0,609.528 -625.2882,0 0,-609.528 z"
         id="path3729" /></clipPath></defs><sodipodi:namedview
     pagecolor="#ffffff"
     bordercolor="#666666"
     borderopacity="1"
     objecttolerance="10"
     gridtolerance="10"
     guidetolerance="10"
     inkscape:pageopacity="0"
     inkscape:pageshadow="2"
     inkscape:window-width="640"
     inkscape:window-height="480"
     id="namedview3611"
     showgrid="false"
     inkscape:zoom="0.21972801"
     inkscape:cx="841.95001"
     inkscape:cy="419.39999"
     inkscape:window-x="98"
     inkscape:window-y="36"
     inkscape:window-maximized="0"
     inkscape:current-layer="g3617" /><g
     id="g3617"
     inkscape:groupmode="layer"
     inkscape:label="taper"
     transform="matrix(1.25,0,0,-1.25,0,838.8)"><path
       d="m 0,0 1347.12,0 0,671.04 L 0,671.04 0,0 z"
       style="fill:#ffffff;fill-opacity:1;fill-rule:nonzero;stroke:none"
       id="path3619" /><path
       d="m 30.8715,30.756 625.2882,0 0,609.528 -625.2882,0 0,-609.528 z"
       style="fill:#ffffff;fill-opacity:1;fill-rule:nonzero;stroke:none"
       id="path3621" /><g
       id="g3623"><g
         id="g3625"
         clip-path="url(#clipPath3627)"><path
           d="m 60.35909,145.05472 27.206459,22.46013 26.630901,21.98499 26.07343,21.52476 25.53327,21.07883 25.00972,20.64663 24.50212,20.22758 24.00981,19.82116 23.5322,19.42686 23.06869,19.04422 22.61875,18.67277 22.18184,18.31209 21.75747,17.96175 21.34516,17.62137 20.94447,17.29058 20.55495,16.96901 20.17619,16.65634 19.80782,16.35222 19.44943,16.05637 19.10069,15.76846 18.76125,15.48823 -425.058161,-350.90422 26.630901,21.98499 26.07343,21.52476 25.53327,21.07883 25.00972,20.64663 24.50212,20.22758 24.00981,19.82116 23.5322,19.42686 23.06869,19.04422 22.61875,18.67277 22.18184,18.31209 21.75747,17.96175 21.34516,17.62137 20.94447,17.29058 20.55495,16.96901 20.17619,16.65634 19.80782,16.35222 19.44943,16.05637 19.10069,15.76846 18.76125,15.48823"
           style="fill:none;stroke:#000000;stroke-opacity:1;stroke-width:2;stroke-linecap:butt;stroke-linejoin:round;stroke-miterlimit:10;stroke-dasharray:none"
           id="path3631" /><path
           d="m 100.9674,131.86495 26.9386,22.7415 26.36522,22.25744 25.80994,21.78869 25.27202,21.33458 24.75075,20.89452 24.24544,20.46795 23.75546,20.05429 23.28016,19.65306 22.81901,19.26374 22.37141,18.88589 21.93685,18.51904 21.51484,18.16278 21.1049,17.81669 20.70654,17.48042 20.31937,17.15356 19.94296,16.8358 19.57691,16.52677 19.22084,16.22619 18.87441,15.93373 18.53725,15.6491 -420.40428,-354.90424 26.36522,22.25744 25.80994,21.78869 25.27202,21.33458 24.75075,20.89452 24.24544,20.46795 23.75546,20.05429 23.28016,19.65306 22.81901,19.26374 22.37141,18.88589 21.93685,18.51904 21.51484,18.16278 21.1049,17.81669 20.70654,17.48042 20.31937,17.15356 19.94296,16.8358 19.57691,16.52677 19.22084,16.22619 18.87441,15.93373 18.53725,15.6491"
           style="fill:none;stroke:#000000;stroke-opacity:1;stroke-width:2;stroke-linecap:butt;stroke-linejoin:round;stroke-miterlimit:10;stroke-dasharray:none"
           id="path3633" /><path
           d="m 142.08881,118.50851 26.66185,23.02819 26.09084,22.53501 25.53798,22.0575 25.00251,21.595 24.48371,21.14691 23.98089,20.71262 23.4934,20.29157 23.02063,19.88322 22.56198,19.48709 22.11691,19.10267 21.68488,18.72952 21.26539,18.3672 20.85794,18.01529 20.4621,17.67339 20.07742,17.34114 19.7035,17.01817 19.33991,16.70414 18.9863,16.39872 18.6423,16.10161 18.30756,15.81249 -415.61615,-358.97326 26.09084,22.53501 25.53798,22.0575 25.00251,21.595 24.48371,21.14691 23.98089,20.71262 23.4934,20.29157 23.02063,19.88322 22.56198,19.48709 22.11691,19.10267 21.68488,18.72952 21.26539,18.3672 20.85794,18.01529 20.4621,17.67339 20.07742,17.34114 19.7035,17.01817 19.33991,16.70414 18.9863,16.39872 18.6423,16.10161 18.30756,15.81249"
           style="fill:none;stroke:#000000;stroke-opacity:1;stroke-width:2;stroke-linecap:butt;stroke-linejoin:round;stroke-miterlimit:10;stroke-dasharray:none"
           id="path3635" /><path
           d="m 60.35909,145.05472 40.60831,-13.18977 41.12141,-13.35644"
           style="fill:none;stroke:#000000;stroke-opacity:1;stroke-width:2;stroke-linecap:butt;stroke-linejoin:round;stroke-miterlimit:10;stroke-dasharray:none"
           id="path3637" /><path
           d="M 87.565549,167.51485 127.906,154.60645 168.75066,141.5367"
           style="fill:none;stroke:#000000;stroke-opacity:1;stroke-width:2;stroke-linecap:butt;stroke-linejoin:round;stroke-miterlimit:10;stroke-dasharray:none"
           id="path3639" /><path
           d="m 114.19645,189.49984 40.07477,-12.63595 40.57028,-12.79218"
           style="fill:none;stroke:#000000;stroke-opacity:1;stroke-width:2;stroke-linecap:butt;stroke-linejoin:round;stroke-miterlimit:10;stroke-dasharray:none"
           id="path3641" /><path
           d="m 140.26988,211.0246 39.81128,-12.37202 40.29832,-12.52337"
           style="fill:none;stroke:#000000;stroke-opacity:1;stroke-width:2;stroke-linecap:butt;stroke-linejoin:round;stroke-miterlimit:10;stroke-dasharray:none"
           id="path3643" /><path
           d="m 165.80315,232.10343 39.55003,-12.11627 40.02881,-12.26295"
           style="fill:none;stroke:#000000;stroke-opacity:1;stroke-width:2;stroke-linecap:butt;stroke-linejoin:round;stroke-miterlimit:10;stroke-dasharray:none"
           id="path3645" /><path
           d="m 190.81287,252.75006 39.29106,-11.86838 39.76177,-12.01056"
           style="fill:none;stroke:#000000;stroke-opacity:1;stroke-width:2;stroke-linecap:butt;stroke-linejoin:round;stroke-miterlimit:10;stroke-dasharray:none"
           id="path3647" /><path
           d="m 215.31499,272.97764 39.03438,-11.62801 39.49722,-11.76589"
           style="fill:none;stroke:#000000;stroke-opacity:1;stroke-width:2;stroke-linecap:butt;stroke-linejoin:round;stroke-miterlimit:10;stroke-dasharray:none"
           id="path3649" /><path
           d="m 239.3248,292.7988 38.78003,-11.39488 39.23516,-11.52861"
           style="fill:none;stroke:#000000;stroke-opacity:1;stroke-width:2;stroke-linecap:butt;stroke-linejoin:round;stroke-miterlimit:10;stroke-dasharray:none"
           id="path3651" /><path
           d="m 262.857,312.22566 38.52799,-11.16868 38.97563,-11.29845"
           style="fill:none;stroke:#000000;stroke-opacity:1;stroke-width:2;stroke-linecap:butt;stroke-linejoin:round;stroke-miterlimit:10;stroke-dasharray:none"
           id="path3653" /><path
           d="m 285.92569,331.26988 38.27831,-10.94916 38.7186,-11.0751"
           style="fill:none;stroke:#000000;stroke-opacity:1;stroke-width:2;stroke-linecap:butt;stroke-linejoin:round;stroke-miterlimit:10;stroke-dasharray:none"
           id="path3655" /><path
           d="m 308.54444,349.94265 38.03097,-10.73604 38.4641,-10.85832"
           style="fill:none;stroke:#000000;stroke-opacity:1;stroke-width:2;stroke-linecap:butt;stroke-linejoin:round;stroke-miterlimit:10;stroke-dasharray:none"
           id="path3657" /><path
           d="m 330.72628,368.25474 37.78598,-10.52909 38.21213,-10.64784"
           style="fill:none;stroke:#000000;stroke-opacity:1;stroke-width:2;stroke-linecap:butt;stroke-linejoin:round;stroke-miterlimit:10;stroke-dasharray:none"
           id="path3659" /><path
           d="m 352.48375,386.21649 37.54335,-10.32806 37.96268,-10.44342"
           style="fill:none;stroke:#000000;stroke-opacity:1;stroke-width:2;stroke-linecap:butt;stroke-linejoin:round;stroke-miterlimit:10;stroke-dasharray:none"
           id="path3661" /><path
           d="M 373.82891,403.83786 411.132,393.70512 448.84772,383.4603"
           style="fill:none;stroke:#000000;stroke-opacity:1;stroke-width:2;stroke-linecap:butt;stroke-linejoin:round;stroke-miterlimit:10;stroke-dasharray:none"
           id="path3663" /><path
           d="m 394.77338,421.12844 37.06516,-9.9429 37.47128,-10.05185"
           style="fill:none;stroke:#000000;stroke-opacity:1;stroke-width:2;stroke-linecap:butt;stroke-linejoin:round;stroke-miterlimit:10;stroke-dasharray:none"
           id="path3665" /><path
           d="m 415.32833,438.09745 36.82958,-9.75835 37.22933,-9.86427"
           style="fill:none;stroke:#000000;stroke-opacity:1;stroke-width:2;stroke-linecap:butt;stroke-linejoin:round;stroke-miterlimit:10;stroke-dasharray:none"
           id="path3667" /><path
           d="m 435.50452,454.75379 36.59635,-9.57889 36.98987,-9.6819"
           style="fill:none;stroke:#000000;stroke-opacity:1;stroke-width:2;stroke-linecap:butt;stroke-linejoin:round;stroke-miterlimit:10;stroke-dasharray:none"
           id="path3669" /><path
           d="m 455.31234,471.10601 36.36544,-9.40434 36.75287,-9.50453"
           style="fill:none;stroke:#000000;stroke-opacity:1;stroke-width:2;stroke-linecap:butt;stroke-linejoin:round;stroke-miterlimit:10;stroke-dasharray:none"
           id="path3671" /><path
           d="m 474.76177,487.16238 36.13685,-9.23452 36.51833,-9.332"
           style="fill:none;stroke:#000000;stroke-opacity:1;stroke-width:2;stroke-linecap:butt;stroke-linejoin:round;stroke-miterlimit:10;stroke-dasharray:none"
           id="path3673" /><path
           d="m 493.86246,502.93084 35.91057,-9.06925 36.28622,-9.16412"
           style="fill:none;stroke:#000000;stroke-opacity:1;stroke-width:2;stroke-linecap:butt;stroke-linejoin:round;stroke-miterlimit:10;stroke-dasharray:none"
           id="path3675" /><path
           d="m 512.62371,518.41907 35.68657,-8.90838 36.05653,-9.00073"
           style="fill:none;stroke:#000000;stroke-opacity:1;stroke-width:2;stroke-linecap:butt;stroke-linejoin:round;stroke-miterlimit:10;stroke-dasharray:none"
           id="path3677" /><path
           d="M 87.565549,167.51485 127.906,154.60645 168.75066,141.5367"
           style="fill:none;stroke:#000000;stroke-opacity:1;stroke-width:2;stroke-linecap:butt;stroke-linejoin:round;stroke-miterlimit:10;stroke-dasharray:none"
           id="path3679" /><path
           d="m 114.19645,189.49984 40.07477,-12.63595 40.57028,-12.79218"
           style="fill:none;stroke:#000000;stroke-opacity:1;stroke-width:2;stroke-linecap:butt;stroke-linejoin:round;stroke-miterlimit:10;stroke-dasharray:none"
           id="path3681" /><path
           d="m 140.26988,211.0246 39.81128,-12.37202 40.29832,-12.52337"
           style="fill:none;stroke:#000000;stroke-opacity:1;stroke-width:2;stroke-linecap:butt;stroke-linejoin:round;stroke-miterlimit:10;stroke-dasharray:none"
           id="path3683" /><path
           d="m 165.80315,232.10343 39.55003,-12.11627 40.02881,-12.26295"
           style="fill:none;stroke:#000000;stroke-opacity:1;stroke-width:2;stroke-linecap:butt;stroke-linejoin:round;stroke-miterlimit:10;stroke-dasharray:none"
           id="path3685" /><path
           d="m 190.81287,252.75006 39.29106,-11.86838 39.76177,-12.01056"
           style="fill:none;stroke:#000000;stroke-opacity:1;stroke-width:2;stroke-linecap:butt;stroke-linejoin:round;stroke-miterlimit:10;stroke-dasharray:none"
           id="path3687" /><path
           d="m 215.31499,272.97764 39.03438,-11.62801 39.49722,-11.76589"
           style="fill:none;stroke:#000000;stroke-opacity:1;stroke-width:2;stroke-linecap:butt;stroke-linejoin:round;stroke-miterlimit:10;stroke-dasharray:none"
           id="path3689" /><path
           d="m 239.3248,292.7988 38.78003,-11.39488 39.23516,-11.52861"
           style="fill:none;stroke:#000000;stroke-opacity:1;stroke-width:2;stroke-linecap:butt;stroke-linejoin:round;stroke-miterlimit:10;stroke-dasharray:none"
           id="path3691" /><path
           d="m 262.857,312.22566 38.52799,-11.16868 38.97563,-11.29845"
           style="fill:none;stroke:#000000;stroke-opacity:1;stroke-width:2;stroke-linecap:butt;stroke-linejoin:round;stroke-miterlimit:10;stroke-dasharray:none"
           id="path3693" /><path
           d="m 285.92569,331.26988 38.27831,-10.94916 38.7186,-11.0751"
           style="fill:none;stroke:#000000;stroke-opacity:1;stroke-width:2;stroke-linecap:butt;stroke-linejoin:round;stroke-miterlimit:10;stroke-dasharray:none"
           id="path3695" /><path
           d="m 308.54444,349.94265 38.03097,-10.73604 38.4641,-10.85832"
           style="fill:none;stroke:#000000;stroke-opacity:1;stroke-width:2;stroke-linecap:butt;stroke-linejoin:round;stroke-miterlimit:10;stroke-dasharray:none"
           id="path3697" /><path
           d="m 330.72628,368.25474 37.78598,-10.52909 38.21213,-10.64784"
           style="fill:none;stroke:#000000;stroke-opacity:1;stroke-width:2;stroke-linecap:butt;stroke-linejoin:round;stroke-miterlimit:10;stroke-dasharray:none"
           id="path3699" /><path
           d="m 352.48375,386.21649 37.54335,-10.32806 37.96268,-10.44342"
           style="fill:none;stroke:#000000;stroke-opacity:1;stroke-width:2;stroke-linecap:butt;stroke-linejoin:round;stroke-miterlimit:10;stroke-dasharray:none"
           id="path3701" /><path
           d="M 373.82891,403.83786 411.132,393.70512 448.84772,383.4603"
           style="fill:none;stroke:#000000;stroke-opacity:1;stroke-width:2;stroke-linecap:butt;stroke-linejoin:round;stroke-miterlimit:10;stroke-dasharray:none"
           id="path3703" /><path
           d="m 394.77338,421.12844 37.06516,-9.9429 37.47128,-10.05185"
           style="fill:none;stroke:#000000;stroke-opacity:1;stroke-width:2;stroke-linecap:butt;stroke-linejoin:round;stroke-miterlimit:10;stroke-dasharray:none"
           id="path3705" /><path
           d="m 415.32833,438.09745 36.82958,-9.75835 37.22933,-9.86427"
           style="fill:none;stroke:#000000;stroke-opacity:1;stroke-width:2;stroke-linecap:butt;stroke-linejoin:round;stroke-miterlimit:10;stroke-dasharray:none"
           id="path3707" /><path
           d="m 435.50452,454.75379 36.59635,-9.57889 36.98987,-9.6819"
           style="fill:none;stroke:#000000;stroke-opacity:1;stroke-width:2;stroke-linecap:butt;stroke-linejoin:round;stroke-miterlimit:10;stroke-dasharray:none"
           id="path3709" /><path
           d="m 455.31234,471.10601 36.36544,-9.40434 36.75287,-9.50453"
           style="fill:none;stroke:#000000;stroke-opacity:1;stroke-width:2;stroke-linecap:butt;stroke-linejoin:round;stroke-miterlimit:10;stroke-dasharray:none"
           id="path3711" /><path
           d="m 474.76177,487.16238 36.13685,-9.23452 36.51833,-9.332"
           style="fill:none;stroke:#000000;stroke-opacity:1;stroke-width:2;stroke-linecap:butt;stroke-linejoin:round;stroke-miterlimit:10;stroke-dasharray:none"
           id="path3713" /><path
           d="m 493.86246,502.93084 35.91057,-9.06925 36.28622,-9.16412"
           style="fill:none;stroke:#000000;stroke-opacity:1;stroke-width:2;stroke-linecap:butt;stroke-linejoin:round;stroke-miterlimit:10;stroke-dasharray:none"
           id="path3715" /><path
           d="m 512.62371,518.41907 35.68657,-8.90838 36.05653,-9.00073"
           style="fill:none;stroke:#000000;stroke-opacity:1;stroke-width:2;stroke-linecap:butt;stroke-linejoin:round;stroke-miterlimit:10;stroke-dasharray:none"
           id="path3717" /></g></g><g
       id="g3719"><path
         d="m 690.9603,30.756 625.2882,0 0,609.528 -625.2882,0 0,-609.528 z"
         style="fill:#ffffff;fill-opacity:1;fill-rule:nonzero;stroke:none"
         id="path3721" /></g><g
       id="g3723"><g
         id="g3725"
         clip-path="url(#clipPath3727)"><path
           d="m 759.53134,140.09433 23.61883,23.59633 23.0954,23.0734 22.58918,22.56766 22.09942,22.07837 21.62541,21.60482 21.16651,21.14635 20.72205,20.7023 20.29144,20.27212 19.87412,19.85519 19.46954,19.451 25.07987,17.39163 24.62289,17.07473 24.1783,16.76642 23.7456,16.46637 23.3244,16.17432 22.9144,15.88996 22.515,15.61304 22.126,15.3433 21.7471,15.08048 21.3777,14.82436"
           style="fill:none;stroke:#000000;stroke-opacity:1;stroke-width:2;stroke-linecap:butt;stroke-linejoin:round;stroke-miterlimit:10;stroke-dasharray:none"
           id="path3731" /><path
           d="m 767.68047,137.45714 26.79704,22.62199 26.22814,22.14173 25.67717,21.6766 25.14337,21.22598 24.62606,20.78926 24.12455,20.36588 23.63819,19.9553 23.16641,19.55702 22.7086,19.17055 22.2642,18.79541 21.8328,18.43119 21.4138,18.07744 21.0067,17.73379 20.6111,17.39984 20.2266,17.07523 19.8527,16.75963 19.4891,16.4527 19.1355,16.15412 18.7914,15.86359 18.4563,15.58084"
           style="fill:none;stroke:#000000;stroke-opacity:1;stroke-width:2;stroke-linecap:butt;stroke-linejoin:round;stroke-miterlimit:10;stroke-dasharray:none"
           id="path3733" /><path
           d="m 775.85002,134.81333 29.99418,21.64172 29.38547,21.20252 28.79511,20.77656 28.22236,20.3633 27.66653,19.96225 27.12697,19.57294 26.60303,19.1949 26.09412,18.82772 25.59971,18.47096 25.1192,18.12426 18.5135,19.49234 18.1401,19.09913 17.7778,18.71769 17.4262,18.34757 17.0851,17.98831 16.7537,17.6395 16.432,17.30075 16.1195,16.97166 15.8157,16.65187 15.5204,16.34103"
           style="fill:none;stroke:#000000;stroke-opacity:1;stroke-width:2;stroke-linecap:butt;stroke-linejoin:round;stroke-miterlimit:10;stroke-dasharray:none"
           id="path3735" /><path
           d="m 759.53134,140.09433 8.14913,-2.63719 8.16955,-2.64381"
           style="fill:none;stroke:#000000;stroke-opacity:1;stroke-width:2;stroke-linecap:butt;stroke-linejoin:round;stroke-miterlimit:10;stroke-dasharray:none"
           id="path3737" /><path
           d="m 783.15017,163.69066 11.32734,-3.61153 11.36669,-3.62408"
           style="fill:none;stroke:#000000;stroke-opacity:1;stroke-width:2;stroke-linecap:butt;stroke-linejoin:round;stroke-miterlimit:10;stroke-dasharray:none"
           id="path3739" /><path
           d="m 806.24557,186.76406 14.46008,-4.5432 14.52402,-4.56329"
           style="fill:none;stroke:#000000;stroke-opacity:1;stroke-width:2;stroke-linecap:butt;stroke-linejoin:round;stroke-miterlimit:10;stroke-dasharray:none"
           id="path3741" /><path
           d="m 828.83475,209.33172 17.54807,-5.43426 17.64196,-5.46333"
           style="fill:none;stroke:#000000;stroke-opacity:1;stroke-width:2;stroke-linecap:butt;stroke-linejoin:round;stroke-miterlimit:10;stroke-dasharray:none"
           id="path3743" /><path
           d="m 850.93417,231.41009 20.59202,-6.28665 20.72095,-6.32601"
           style="fill:none;stroke:#000000;stroke-opacity:1;stroke-width:2;stroke-linecap:butt;stroke-linejoin:round;stroke-miterlimit:10;stroke-dasharray:none"
           id="path3745" /><path
           d="m 872.55958,253.01491 23.59267,-7.10221 23.76142,-7.15302"
           style="fill:none;stroke:#000000;stroke-opacity:1;stroke-width:2;stroke-linecap:butt;stroke-linejoin:round;stroke-miterlimit:10;stroke-dasharray:none"
           id="path3747" /><path
           d="m 893.72609,274.16126 26.55071,-7.88268 26.76384,-7.94596"
           style="fill:none;stroke:#000000;stroke-opacity:1;stroke-width:2;stroke-linecap:butt;stroke-linejoin:round;stroke-miterlimit:10;stroke-dasharray:none"
           id="path3749" /><path
           d="m 914.44814,294.86356 29.46685,-8.62968 29.72868,-8.70636"
           style="fill:none;stroke:#000000;stroke-opacity:1;stroke-width:2;stroke-linecap:butt;stroke-linejoin:round;stroke-miterlimit:10;stroke-dasharray:none"
           id="path3751" /><path
           d="m 934.73958,315.13568 32.34182,-9.34478 32.65639,-9.43566"
           style="fill:none;stroke:#000000;stroke-opacity:1;stroke-width:2;stroke-linecap:butt;stroke-linejoin:round;stroke-miterlimit:10;stroke-dasharray:none"
           id="path3753" /><path
           d="M 954.6137,334.99087 989.79,324.96145 1025.3375,314.8262"
           style="fill:none;stroke:#000000;stroke-opacity:1;stroke-width:2;stroke-linecap:butt;stroke-linejoin:round;stroke-miterlimit:10;stroke-dasharray:none"
           id="path3755" /><path
           d="m 974.08324,354.44187 37.97096,-10.68501 38.4025,-10.8064"
           style="fill:none;stroke:#000000;stroke-opacity:1;stroke-width:2;stroke-linecap:butt;stroke-linejoin:round;stroke-miterlimit:10;stroke-dasharray:none"
           id="path3757" /><path
           d="m 999.16311,371.8335 34.72389,-9.64545 35.0832,-9.74525"
           style="fill:none;stroke:#000000;stroke-opacity:1;stroke-width:2;stroke-linecap:butt;stroke-linejoin:round;stroke-miterlimit:10;stroke-dasharray:none"
           id="path3759" /><path
           d="m 1023.786,388.90823 31.5148,-8.64274 31.8095,-8.72356"
           style="fill:none;stroke:#000000;stroke-opacity:1;stroke-width:2;stroke-linecap:butt;stroke-linejoin:round;stroke-miterlimit:10;stroke-dasharray:none"
           id="path3761" /><path
           d="m 1047.9643,405.67465 28.3432,-7.67537 28.5806,-7.73966"
           style="fill:none;stroke:#000000;stroke-opacity:1;stroke-width:2;stroke-linecap:butt;stroke-linejoin:round;stroke-miterlimit:10;stroke-dasharray:none"
           id="path3763" /><path
           d="m 1071.7099,422.14102 25.2087,-6.7419 25.3957,-6.79193"
           style="fill:none;stroke:#000000;stroke-opacity:1;stroke-width:2;stroke-linecap:butt;stroke-linejoin:round;stroke-miterlimit:10;stroke-dasharray:none"
           id="path3765" /><path
           d="m 1095.0343,438.31534 22.1109,-5.84099 22.2542,-5.87885"
           style="fill:none;stroke:#000000;stroke-opacity:1;stroke-width:2;stroke-linecap:butt;stroke-linejoin:round;stroke-miterlimit:10;stroke-dasharray:none"
           id="path3767" /><path
           d="m 1117.9487,454.2053 19.0492,-4.97132 19.1552,-4.99898"
           style="fill:none;stroke:#000000;stroke-opacity:1;stroke-width:2;stroke-linecap:butt;stroke-linejoin:round;stroke-miterlimit:10;stroke-dasharray:none"
           id="path3769" /><path
           d="m 1140.4637,469.81834 16.0233,-4.13166 16.0981,-4.15093"
           style="fill:none;stroke:#000000;stroke-opacity:1;stroke-width:2;stroke-linecap:butt;stroke-linejoin:round;stroke-miterlimit:10;stroke-dasharray:none"
           id="path3771" /><path
           d="m 1162.5897,485.16164 13.0328,-3.32084 13.0821,-3.33339"
           style="fill:none;stroke:#000000;stroke-opacity:1;stroke-width:2;stroke-linecap:butt;stroke-linejoin:round;stroke-miterlimit:10;stroke-dasharray:none"
           id="path3773" /><path
           d="m 1184.3368,500.24212 10.0771,-2.53773 10.1064,-2.54511"
           style="fill:none;stroke:#000000;stroke-opacity:1;stroke-width:2;stroke-linecap:butt;stroke-linejoin:round;stroke-miterlimit:10;stroke-dasharray:none"
           id="path3775" /><path
           d="m 1205.7145,515.06648 7.1557,-1.78125 7.1705,-1.78492"
           style="fill:none;stroke:#000000;stroke-opacity:1;stroke-width:2;stroke-linecap:butt;stroke-linejoin:round;stroke-miterlimit:10;stroke-dasharray:none"
           id="path3777" /></g></g></g></svg>