<?xml version="1.0" encoding="UTF-8" standalone="no"?>
<!-- Created with Inkscape (http://www.inkscape.org/) -->

<svg
   xmlns:dc="http://purl.org/dc/elements/1.1/"
   xmlns:cc="http://creativecommons.org/ns#"
   xmlns:rdf="http://www.w3.org/1999/02/22-rdf-syntax-ns#"
   xmlns:svg="http://www.w3.org/2000/svg"
   xmlns="http://www.w3.org/2000/svg"
   xmlns:sodipodi="http://sodipodi.sourceforge.net/DTD/sodipodi-0.dtd"
   xmlns:inkscape="http://www.inkscape.org/namespaces/inkscape"
   id="svg3439"
   version="1.1"
   inkscape:version="0.48.4 r9939"
   width="1683.9"
   height="838.8"
   xml:space="preserve"
   sodipodi:docname="dihedral.pdf"><options
     id="options3445"><rdf:RDF><cc:Work
         rdf:about=""><dc:format>image/svg+xml</dc:format><dc:type
           rdf:resource="http://purl.org/dc/dcmitype/StillImage" /><dc:title></dc:title></cc:Work></rdf:RDF></options><defs
     id="defs3443"><clipPath
       clipPathUnits="userSpaceOnUse"
       id="clipPath3457"><path
         d="m 30.8715,30.756 625.2882,0 0,609.528 -625.2882,0 0,-609.528 z"
         id="path3459" /></clipPath><clipPath
       clipPathUnits="userSpaceOnUse"
       id="clipPath3557"><path
         d="m 690.9603,30.756 625.2882,0 0,609.528 -625.2882,0 0,-609.528 z"
         id="path3559" /></clipPath></defs><sodipodi:namedview
     pagecolor="#ffffff"
     bordercolor="#666666"
     borderopacity="1"
     objecttolerance="10"
     gridtolerance="10"
     guidetolerance="10"
     inkscape:pageopacity="0"
     inkscape:pageshadow="2"
     inkscape:window-width="640"
     inkscape:window-height="480"
     id="namedview3441"
     showgrid="false"
     inkscape:zoom="0.23398064"
     inkscape:cx="841.95001"
     inkscape:cy="419.39999"
     inkscape:window-x="98"
     inkscape:window-y="36"
     inkscape:window-maximized="0"
     inkscape:current-layer="g3447" /><g
     id="g3447"
     inkscape:groupmode="layer"
     inkscape:label="dihedral"
     transform="matrix(1.25,0,0,-1.25,0,838.8)"><path
       d="m 0,0 1347.12,0 0,671.04 L 0,671.04 0,0 z"
       style="fill:#ffffff;fill-opacity:1;fill-rule:nonzero;stroke:none"
       id="path3449" /><path
       d="m 30.8715,30.756 625.2882,0 0,609.528 -625.2882,0 0,-609.528 z"
       style="fill:#ffffff;fill-opacity:1;fill-rule:nonzero;stroke:none"
       id="path3451" /><g
       id="g3453"><g
         id="g3455"
         clip-path="url(#clipPath3457)"><path
           d="m 60.35909,145.05472 27.206459,22.46013 26.630901,21.98499 26.07343,21.52476 25.53327,21.07883 25.00972,20.64663 24.50212,20.22758 24.00981,19.82116 23.5322,19.42686 23.06869,19.04422 22.61875,18.67277 22.18184,18.31209 21.75747,17.96175 21.34516,17.62137 20.94447,17.29058 20.55495,16.96901 20.17619,16.65634 19.80782,16.35222 19.44943,16.05637 19.10069,15.76846 18.76125,15.48823 -425.058161,-350.90422 26.630901,21.98499 26.07343,21.52476 25.53327,21.07883 25.00972,20.64663 24.50212,20.22758 24.00981,19.82116 23.5322,19.42686 23.06869,19.04422 22.61875,18.67277 22.18184,18.31209 21.75747,17.96175 21.34516,17.62137 20.94447,17.29058 20.55495,16.96901 20.17619,16.65634 19.80782,16.35222 19.44943,16.05637 19.10069,15.76846 18.76125,15.48823"
           style="fill:none;stroke:#000000;stroke-opacity:1;stroke-width:2;stroke-linecap:butt;stroke-linejoin:round;stroke-miterlimit:10;stroke-dasharray:none"
           id="path3461" /><path
           d="m 100.9674,131.86495 26.9386,22.7415 26.36522,22.25744 25.80994,21.78869 25.27202,21.33458 24.75075,20.89452 24.24544,20.46795 23.75546,20.05429 23.28016,19.65306 22.81901,19.26374 22.37141,18.88589 21.93685,18.51904 21.51484,18.16278 21.1049,17.81669 20.70654,17.48042 20.31937,17.15356 19.94296,16.8358 19.57691,16.52677 19.22084,16.22619 18.87441,15.93373 18.53725,15.6491 -420.40428,-354.90424 26.36522,22.25744 25.80994,21.78869 25.27202,21.33458 24.75075,20.89452 24.24544,20.46795 23.75546,20.05429 23.28016,19.65306 22.81901,19.26374 22.37141,18.88589 21.93685,18.51904 21.51484,18.16278 21.1049,17.81669 20.70654,17.48042 20.31937,17.15356 19.94296,16.8358 19.57691,16.52677 19.22084,16.22619 18.87441,15.93373 18.53725,15.6491"
           style="fill:none;stroke:#000000;stroke-opacity:1;stroke-width:2;stroke-linecap:butt;stroke-linejoin:round;stroke-miterlimit:10;stroke-dasharray:none"
           id="path3463" /><path
           d="m 142.08881,118.50851 26.66185,23.02819 26.09084,22.53501 25.53798,22.0575 25.00251,21.595 24.48371,21.14691 23.98089,20.71262 23.4934,20.29157 23.02063,19.88322 22.56198,19.48709 22.11691,19.10267 21.68488,18.72952 21.26539,18.3672 20.85794,18.01529 20.4621,17.67339 20.07742,17.34114 19.7035,17.01817 19.33991,16.70414 18.9863,16.39872 18.6423,16.10161 18.30756,15.81249 -415.61615,-358.97326 26.09084,22.53501 25.53798,22.0575 25.00251,21.595 24.48371,21.14691 23.98089,20.71262 23.4934,20.29157 23.02063,19.88322 22.56198,19.48709 22.11691,19.10267 21.68488,18.72952 21.26539,18.3672 20.85794,18.01529 20.4621,17.67339 20.07742,17.34114 19.7035,17.01817 19.33991,16.70414 18.9863,16.39872 18.6423,16.10161 18.30756,15.81249"
           style="fill:none;stroke:#000000;stroke-opacity:1;stroke-width:2;stroke-linecap:butt;stroke-linejoin:round;stroke-miterlimit:10;stroke-dasharray:none"
           id="path3465" /><path
           d="m 60.35909,145.05472 40.60831,-13.18977 41.12141,-13.35644"
           style="fill:none;stroke:#000000;stroke-opacity:1;stroke-width:2;stroke-linecap:butt;stroke-linejoin:round;stroke-miterlimit:10;stroke-dasharray:none"
           id="path3467" /><path
           d="M 87.565549,167.51485 127.906,154.60645 168.75066,141.5367"
           style="fill:none;stroke:#000000;stroke-opacity:1;stroke-width:2;stroke-linecap:butt;stroke-linejoin:round;stroke-miterlimit:10;stroke-dasharray:none"
           id="path3469" /><path
           d="m 114.19645,189.49984 40.07477,-12.63595 40.57028,-12.79218"
           style="fill:none;stroke:#000000;stroke-opacity:1;stroke-width:2;stroke-linecap:butt;stroke-linejoin:round;stroke-miterlimit:10;stroke-dasharray:none"
           id="path3471" /><path
           d="m 140.26988,211.0246 39.81128,-12.37202 40.29832,-12.52337"
           style="fill:none;stroke:#000000;stroke-opacity:1;stroke-width:2;stroke-linecap:butt;stroke-linejoin:round;stroke-miterlimit:10;stroke-dasharray:none"
           id="path3473" /><path
           d="m 165.80315,232.10343 39.55003,-12.11627 40.02881,-12.26295"
           style="fill:none;stroke:#000000;stroke-opacity:1;stroke-width:2;stroke-linecap:butt;stroke-linejoin:round;stroke-miterlimit:10;stroke-dasharray:none"
           id="path3475" /><path
           d="m 190.81287,252.75006 39.29106,-11.86838 39.76177,-12.01056"
           style="fill:none;stroke:#000000;stroke-opacity:1;stroke-width:2;stroke-linecap:butt;stroke-linejoin:round;stroke-miterlimit:10;stroke-dasharray:none"
           id="path3477" /><path
           d="m 215.31499,272.97764 39.03438,-11.62801 39.49722,-11.76589"
           style="fill:none;stroke:#000000;stroke-opacity:1;stroke-width:2;stroke-linecap:butt;stroke-linejoin:round;stroke-miterlimit:10;stroke-dasharray:none"
           id="path3479" /><path
           d="m 239.3248,292.7988 38.78003,-11.39488 39.23516,-11.52861"
           style="fill:none;stroke:#000000;stroke-opacity:1;stroke-width:2;stroke-linecap:butt;stroke-linejoin:round;stroke-miterlimit:10;stroke-dasharray:none"
           id="path3481" /><path
           d="m 262.857,312.22566 38.52799,-11.16868 38.97563,-11.29845"
           style="fill:none;stroke:#000000;stroke-opacity:1;stroke-width:2;stroke-linecap:butt;stroke-linejoin:round;stroke-miterlimit:10;stroke-dasharray:none"
           id="path3483" /><path
           d="m 285.92569,331.26988 38.27831,-10.94916 38.7186,-11.0751"
           style="fill:none;stroke:#000000;stroke-opacity:1;stroke-width:2;stroke-linecap:butt;stroke-linejoin:round;stroke-miterlimit:10;stroke-dasharray:none"
           id="path3485" /><path
           d="m 308.54444,349.94265 38.03097,-10.73604 38.4641,-10.85832"
           style="fill:none;stroke:#000000;stroke-opacity:1;stroke-width:2;stroke-linecap:butt;stroke-linejoin:round;stroke-miterlimit:10;stroke-dasharray:none"
           id="path3487" /><path
           d="m 330.72628,368.25474 37.78598,-10.52909 38.21213,-10.64784"
           style="fill:none;stroke:#000000;stroke-opacity:1;stroke-width:2;stroke-linecap:butt;stroke-linejoin:round;stroke-miterlimit:10;stroke-dasharray:none"
           id="path3489" /><path
           d="m 352.48375,386.21649 37.54335,-10.32806 37.96268,-10.44342"
           style="fill:none;stroke:#000000;stroke-opacity:1;stroke-width:2;stroke-linecap:butt;stroke-linejoin:round;stroke-miterlimit:10;stroke-dasharray:none"
           id="path3491" /><path
           d="M 373.82891,403.83786 411.132,393.70512 448.84772,383.4603"
           style="fill:none;stroke:#000000;stroke-opacity:1;stroke-width:2;stroke-linecap:butt;stroke-linejoin:round;stroke-miterlimit:10;stroke-dasharray:none"
           id="path3493" /><path
           d="m 394.77338,421.12844 37.06516,-9.9429 37.47128,-10.05185"
           style="fill:none;stroke:#000000;stroke-opacity:1;stroke-width:2;stroke-linecap:butt;stroke-linejoin:round;stroke-miterlimit:10;stroke-dasharray:none"
           id="path3495" /><path
           d="m 415.32833,438.09745 36.82958,-9.75835 37.22933,-9.86427"
           style="fill:none;stroke:#000000;stroke-opacity:1;stroke-width:2;stroke-linecap:butt;stroke-linejoin:round;stroke-miterlimit:10;stroke-dasharray:none"
           id="path3497" /><path
           d="m 435.50452,454.75379 36.59635,-9.57889 36.98987,-9.6819"
           style="fill:none;stroke:#000000;stroke-opacity:1;stroke-width:2;stroke-linecap:butt;stroke-linejoin:round;stroke-miterlimit:10;stroke-dasharray:none"
           id="path3499" /><path
           d="m 455.31234,471.10601 36.36544,-9.40434 36.75287,-9.50453"
           style="fill:none;stroke:#000000;stroke-opacity:1;stroke-width:2;stroke-linecap:butt;stroke-linejoin:round;stroke-miterlimit:10;stroke-dasharray:none"
           id="path3501" /><path
           d="m 474.76177,487.16238 36.13685,-9.23452 36.51833,-9.332"
           style="fill:none;stroke:#000000;stroke-opacity:1;stroke-width:2;stroke-linecap:butt;stroke-linejoin:round;stroke-miterlimit:10;stroke-dasharray:none"
           id="path3503" /><path
           d="m 493.86246,502.93084 35.91057,-9.06925 36.28622,-9.16412"
           style="fill:none;stroke:#000000;stroke-opacity:1;stroke-width:2;stroke-linecap:butt;stroke-linejoin:round;stroke-miterlimit:10;stroke-dasharray:none"
           id="path3505" /><path
           d="m 512.62371,518.41907 35.68657,-8.90838 36.05653,-9.00073"
           style="fill:none;stroke:#000000;stroke-opacity:1;stroke-width:2;stroke-linecap:butt;stroke-linejoin:round;stroke-miterlimit:10;stroke-dasharray:none"
           id="path3507" /><path
           d="M 87.565549,167.51485 127.906,154.60645 168.75066,141.5367"
           style="fill:none;stroke:#000000;stroke-opacity:1;stroke-width:2;stroke-linecap:butt;stroke-linejoin:round;stroke-miterlimit:10;stroke-dasharray:none"
           id="path3509" /><path
           d="m 114.19645,189.49984 40.07477,-12.63595 40.57028,-12.79218"
           style="fill:none;stroke:#000000;stroke-opacity:1;stroke-width:2;stroke-linecap:butt;stroke-linejoin:round;stroke-miterlimit:10;stroke-dasharray:none"
           id="path3511" /><path
           d="m 140.26988,211.0246 39.81128,-12.37202 40.29832,-12.52337"
           style="fill:none;stroke:#000000;stroke-opacity:1;stroke-width:2;stroke-linecap:butt;stroke-linejoin:round;stroke-miterlimit:10;stroke-dasharray:none"
           id="path3513" /><path
           d="m 165.80315,232.10343 39.55003,-12.11627 40.02881,-12.26295"
           style="fill:none;stroke:#000000;stroke-opacity:1;stroke-width:2;stroke-linecap:butt;stroke-linejoin:round;stroke-miterlimit:10;stroke-dasharray:none"
           id="path3515" /><path
           d="m 190.81287,252.75006 39.29106,-11.86838 39.76177,-12.01056"
           style="fill:none;stroke:#000000;stroke-opacity:1;stroke-width:2;stroke-linecap:butt;stroke-linejoin:round;stroke-miterlimit:10;stroke-dasharray:none"
           id="path3517" /><path
           d="m 215.31499,272.97764 39.03438,-11.62801 39.49722,-11.76589"
           style="fill:none;stroke:#000000;stroke-opacity:1;stroke-width:2;stroke-linecap:butt;stroke-linejoin:round;stroke-miterlimit:10;stroke-dasharray:none"
           id="path3519" /><path
           d="m 239.3248,292.7988 38.78003,-11.39488 39.23516,-11.52861"
           style="fill:none;stroke:#000000;stroke-opacity:1;stroke-width:2;stroke-linecap:butt;stroke-linejoin:round;stroke-miterlimit:10;stroke-dasharray:none"
           id="path3521" /><path
           d="m 262.857,312.22566 38.52799,-11.16868 38.97563,-11.29845"
           style="fill:none;stroke:#000000;stroke-opacity:1;stroke-width:2;stroke-linecap:butt;stroke-linejoin:round;stroke-miterlimit:10;stroke-dasharray:none"
           id="path3523" /><path
           d="m 285.92569,331.26988 38.27831,-10.94916 38.7186,-11.0751"
           style="fill:none;stroke:#000000;stroke-opacity:1;stroke-width:2;stroke-linecap:butt;stroke-linejoin:round;stroke-miterlimit:10;stroke-dasharray:none"
           id="path3525" /><path
           d="m 308.54444,349.94265 38.03097,-10.73604 38.4641,-10.85832"
           style="fill:none;stroke:#000000;stroke-opacity:1;stroke-width:2;stroke-linecap:butt;stroke-linejoin:round;stroke-miterlimit:10;stroke-dasharray:none"
           id="path3527" /><path
           d="m 330.72628,368.25474 37.78598,-10.52909 38.21213,-10.64784"
           style="fill:none;stroke:#000000;stroke-opacity:1;stroke-width:2;stroke-linecap:butt;stroke-linejoin:round;stroke-miterlimit:10;stroke-dasharray:none"
           id="path3529" /><path
           d="m 352.48375,386.21649 37.54335,-10.32806 37.96268,-10.44342"
           style="fill:none;stroke:#000000;stroke-opacity:1;stroke-width:2;stroke-linecap:butt;stroke-linejoin:round;stroke-miterlimit:10;stroke-dasharray:none"
           id="path3531" /><path
           d="M 373.82891,403.83786 411.132,393.70512 448.84772,383.4603"
           style="fill:none;stroke:#000000;stroke-opacity:1;stroke-width:2;stroke-linecap:butt;stroke-linejoin:round;stroke-miterlimit:10;stroke-dasharray:none"
           id="path3533" /><path
           d="m 394.77338,421.12844 37.06516,-9.9429 37.47128,-10.05185"
           style="fill:none;stroke:#000000;stroke-opacity:1;stroke-width:2;stroke-linecap:butt;stroke-linejoin:round;stroke-miterlimit:10;stroke-dasharray:none"
           id="path3535" /><path
           d="m 415.32833,438.09745 36.82958,-9.75835 37.22933,-9.86427"
           style="fill:none;stroke:#000000;stroke-opacity:1;stroke-width:2;stroke-linecap:butt;stroke-linejoin:round;stroke-miterlimit:10;stroke-dasharray:none"
           id="path3537" /><path
           d="m 435.50452,454.75379 36.59635,-9.57889 36.98987,-9.6819"
           style="fill:none;stroke:#000000;stroke-opacity:1;stroke-width:2;stroke-linecap:butt;stroke-linejoin:round;stroke-miterlimit:10;stroke-dasharray:none"
           id="path3539" /><path
           d="m 455.31234,471.10601 36.36544,-9.40434 36.75287,-9.50453"
           style="fill:none;stroke:#000000;stroke-opacity:1;stroke-width:2;stroke-linecap:butt;stroke-linejoin:round;stroke-miterlimit:10;stroke-dasharray:none"
           id="path3541" /><path
           d="m 474.76177,487.16238 36.13685,-9.23452 36.51833,-9.332"
           style="fill:none;stroke:#000000;stroke-opacity:1;stroke-width:2;stroke-linecap:butt;stroke-linejoin:round;stroke-miterlimit:10;stroke-dasharray:none"
           id="path3543" /><path
           d="m 493.86246,502.93084 35.91057,-9.06925 36.28622,-9.16412"
           style="fill:none;stroke:#000000;stroke-opacity:1;stroke-width:2;stroke-linecap:butt;stroke-linejoin:round;stroke-miterlimit:10;stroke-dasharray:none"
           id="path3545" /><path
           d="m 512.62371,518.41907 35.68657,-8.90838 36.05653,-9.00073"
           style="fill:none;stroke:#000000;stroke-opacity:1;stroke-width:2;stroke-linecap:butt;stroke-linejoin:round;stroke-miterlimit:10;stroke-dasharray:none"
           id="path3547" /></g></g><g
       id="g3549"><path
         d="m 690.9603,30.756 625.2882,0 0,609.528 -625.2882,0 0,-609.528 z"
         style="fill:#ffffff;fill-opacity:1;fill-rule:nonzero;stroke:none"
         id="path3551" /></g><g
       id="g3553"><g
         id="g3555"
         clip-path="url(#clipPath3557)"><path
           d="m 723.18054,227.1532 28.23096,5.67766 27.47035,5.5247 26.74009,5.37783 26.03855,5.23674 25.36427,5.10113 24.71584,4.97072 24.09197,4.84526 23.49141,4.72447 22.91305,4.60816 22.35578,4.49607 21.739,33.11064 21.43729,32.65113 21.1419,32.20112 20.8524,31.76035 20.569,31.32858 20.2913,30.90554 20.019,30.49102 19.7524,30.08478 19.4909,29.68661 19.2347,29.29629"
           style="fill:none;stroke:#000000;stroke-opacity:1;stroke-width:2;stroke-linecap:butt;stroke-linejoin:round;stroke-miterlimit:10;stroke-dasharray:none"
           id="path3561" /><path
           d="m 764.26486,214.33568 27.84322,5.88934 27.08842,5.72969 26.36392,5.57644 25.6681,5.42926 24.99946,5.28783 24.35661,5.15186 23.73825,5.02106 23.14313,4.89519 22.57013,4.77398 22.0181,4.65723 21.5961,33.37092 21.2948,32.90525 20.9996,32.44927 20.7106,32.0027 20.4276,31.56528 20.1503,31.13678 19.8785,30.71693 19.6123,30.30553 19.3514,29.90233 19.0956,29.50713"
           style="fill:none;stroke:#000000;stroke-opacity:1;stroke-width:2;stroke-linecap:butt;stroke-linejoin:round;stroke-miterlimit:10;stroke-dasharray:none"
           id="path3563" /><path
           d="m 805.8742,201.35437 27.44333,6.10595 26.69475,5.93939 25.9764,5.77956 25.28665,5.62609 24.62402,5.47867 23.9871,5.33695 23.37457,5.20068 22.78518,5.06954 22.2179,4.94331 21.6714,4.82174 21.4486,33.63496 21.1477,33.16302 20.853,32.70095 20.5645,32.24846 20.2818,31.80529 20.0051,31.37122 19.7338,30.94595 19.4682,30.52928 19.2078,30.12097 18.9526,29.72079"
           style="fill:none;stroke:#000000;stroke-opacity:1;stroke-width:2;stroke-linecap:butt;stroke-linejoin:round;stroke-miterlimit:10;stroke-dasharray:none"
           id="path3565" /><path
           d="m 723.18054,227.1532 41.08432,-12.81752 41.60934,-12.98131"
           style="fill:none;stroke:#000000;stroke-opacity:1;stroke-width:2;stroke-linecap:butt;stroke-linejoin:round;stroke-miterlimit:10;stroke-dasharray:none"
           id="path3567" /><path
           d="m 751.4115,232.83086 40.69658,-12.60584 41.20945,-12.7647"
           style="fill:none;stroke:#000000;stroke-opacity:1;stroke-width:2;stroke-linecap:butt;stroke-linejoin:round;stroke-miterlimit:10;stroke-dasharray:none"
           id="path3569" /><path
           d="m 778.88185,238.35556 40.31465,-12.40085 40.81578,-12.555"
           style="fill:none;stroke:#000000;stroke-opacity:1;stroke-width:2;stroke-linecap:butt;stroke-linejoin:round;stroke-miterlimit:10;stroke-dasharray:none"
           id="path3571" /><path
           d="m 805.62194,243.73339 39.93848,-12.20224 40.42826,-12.35188"
           style="fill:none;stroke:#000000;stroke-opacity:1;stroke-width:2;stroke-linecap:butt;stroke-linejoin:round;stroke-miterlimit:10;stroke-dasharray:none"
           id="path3573" /><path
           d="m 831.66049,248.97013 39.56803,-12.00972 40.04681,-12.15505"
           style="fill:none;stroke:#000000;stroke-opacity:1;stroke-width:2;stroke-linecap:butt;stroke-linejoin:round;stroke-miterlimit:10;stroke-dasharray:none"
           id="path3575" /><path
           d="m 857.02476,254.07126 39.20322,-11.82302 39.67137,-11.96421"
           style="fill:none;stroke:#000000;stroke-opacity:1;stroke-width:2;stroke-linecap:butt;stroke-linejoin:round;stroke-miterlimit:10;stroke-dasharray:none"
           id="path3577" /><path
           d="m 881.7406,259.04198 38.84399,-11.64188 39.30186,-11.77912"
           style="fill:none;stroke:#000000;stroke-opacity:1;stroke-width:2;stroke-linecap:butt;stroke-linejoin:round;stroke-miterlimit:10;stroke-dasharray:none"
           id="path3579" /><path
           d="m 905.83257,263.88724 38.49027,-11.46608 38.93818,-11.5995"
           style="fill:none;stroke:#000000;stroke-opacity:1;stroke-width:2;stroke-linecap:butt;stroke-linejoin:round;stroke-miterlimit:10;stroke-dasharray:none"
           id="path3581" /><path
           d="m 929.32398,268.61171 38.14199,-11.29536 38.58023,-11.42515"
           style="fill:none;stroke:#000000;stroke-opacity:1;stroke-width:2;stroke-linecap:butt;stroke-linejoin:round;stroke-miterlimit:10;stroke-dasharray:none"
           id="path3583" /><path
           d="m 952.23703,273.21987 37.79907,-11.12954 38.228,-11.25582"
           style="fill:none;stroke:#000000;stroke-opacity:1;stroke-width:2;stroke-linecap:butt;stroke-linejoin:round;stroke-miterlimit:10;stroke-dasharray:none"
           id="path3585" /><path
           d="m 974.59281,277.71594 37.46139,-10.96838 37.8813,-11.09131"
           style="fill:none;stroke:#000000;stroke-opacity:1;stroke-width:2;stroke-linecap:butt;stroke-linejoin:round;stroke-miterlimit:10;stroke-dasharray:none"
           id="path3587" /><path
           d="m 996.33181,310.82658 37.31849,-10.7081 37.7338,-10.82727"
           style="fill:none;stroke:#000000;stroke-opacity:1;stroke-width:2;stroke-linecap:butt;stroke-linejoin:round;stroke-miterlimit:10;stroke-dasharray:none"
           id="path3589" /><path
           d="m 1017.7691,343.47771 37.176,-10.45398 37.5867,-10.5695"
           style="fill:none;stroke:#000000;stroke-opacity:1;stroke-width:2;stroke-linecap:butt;stroke-linejoin:round;stroke-miterlimit:10;stroke-dasharray:none"
           id="path3591" /><path
           d="m 1038.911,375.67883 37.0337,-10.20583 37.4401,-10.31782"
           style="fill:none;stroke:#000000;stroke-opacity:1;stroke-width:2;stroke-linecap:butt;stroke-linejoin:round;stroke-miterlimit:10;stroke-dasharray:none"
           id="path3593" /><path
           d="m 1059.7634,407.43918 36.8919,-9.96348 37.294,-10.07206"
           style="fill:none;stroke:#000000;stroke-opacity:1;stroke-width:2;stroke-linecap:butt;stroke-linejoin:round;stroke-miterlimit:10;stroke-dasharray:none"
           id="path3595" /><path
           d="m 1080.3324,438.76776 36.7505,-9.72678 37.1482,-9.83205"
           style="fill:none;stroke:#000000;stroke-opacity:1;stroke-width:2;stroke-linecap:butt;stroke-linejoin:round;stroke-miterlimit:10;stroke-dasharray:none"
           id="path3597" /><path
           d="m 1100.6237,469.6733 36.6095,-9.49554 37.003,-9.59761"
           style="fill:none;stroke:#000000;stroke-opacity:1;stroke-width:2;stroke-linecap:butt;stroke-linejoin:round;stroke-miterlimit:10;stroke-dasharray:none"
           id="path3599" /><path
           d="m 1120.6427,500.16432 36.469,-9.26963 36.8583,-9.36859"
           style="fill:none;stroke:#000000;stroke-opacity:1;stroke-width:2;stroke-linecap:butt;stroke-linejoin:round;stroke-miterlimit:10;stroke-dasharray:none"
           id="path3601" /><path
           d="m 1140.3951,530.2491 36.3289,-9.04888 36.7142,-9.14484"
           style="fill:none;stroke:#000000;stroke-opacity:1;stroke-width:2;stroke-linecap:butt;stroke-linejoin:round;stroke-miterlimit:10;stroke-dasharray:none"
           id="path3603" /><path
           d="m 1159.886,559.93571 36.1894,-8.83316 36.5706,-8.9262"
           style="fill:none;stroke:#000000;stroke-opacity:1;stroke-width:2;stroke-linecap:butt;stroke-linejoin:round;stroke-miterlimit:10;stroke-dasharray:none"
           id="path3605" /><path
           d="m 1179.1207,589.232 36.0503,-8.62232 36.4276,-8.71254"
           style="fill:none;stroke:#000000;stroke-opacity:1;stroke-width:2;stroke-linecap:butt;stroke-linejoin:round;stroke-miterlimit:10;stroke-dasharray:none"
           id="path3607" /></g></g></g></svg>