<?xml version="1.0" encoding="UTF-8" standalone="no"?>
<!-- Created with Inkscape (http://www.inkscape.org/) -->

<svg
   xmlns:dc="http://purl.org/dc/elements/1.1/"
   xmlns:cc="http://creativecommons.org/ns#"
   xmlns:rdf="http://www.w3.org/1999/02/22-rdf-syntax-ns#"
   xmlns:svg="http://www.w3.org/2000/svg"
   xmlns="http://www.w3.org/2000/svg"
   xmlns:sodipodi="http://sodipodi.sourceforge.net/DTD/sodipodi-0.dtd"
   xmlns:inkscape="http://www.inkscape.org/namespaces/inkscape"
   id="svg3064"
   version="1.1"
   inkscape:version="0.48.4 r9939"
   width="726.25"
   height="556.25"
   xml:space="preserve"
   sodipodi:docname="mesh-diagram.pdf"><options
     id="options3070"><rdf:RDF><cc:Work
         rdf:about=""><dc:format>image/svg+xml</dc:format><dc:type
           rdf:resource="http://purl.org/dc/dcmitype/StillImage" /><dc:title></dc:title></cc:Work></rdf:RDF></options><defs
     id="defs3068"><clipPath
       clipPathUnits="userSpaceOnUse"
       id="clipPath3078"><path
         d="m 0,0 595.27557,0 0,841.88977 L 0,841.88977 0,0 z"
         id="path3080" /></clipPath><clipPath
       clipPathUnits="userSpaceOnUse"
       id="clipPath3082"><path
         d="m 68.738,734.042 527.262,0 0,-570.695 -527.262,0 0,570.695 z"
         id="path3084" /></clipPath><clipPath
       clipPathUnits="userSpaceOnUse"
       id="clipPath3086"><path
         d="m 109,255 479,0 0,366 -479,0 0,-366 z"
         id="path3088" /></clipPath></defs><sodipodi:namedview
     pagecolor="#ffffff"
     bordercolor="#666666"
     borderopacity="1"
     objecttolerance="10"
     gridtolerance="10"
     guidetolerance="10"
     inkscape:pageopacity="0"
     inkscape:pageshadow="2"
     inkscape:window-width="640"
     inkscape:window-height="480"
     id="namedview3066"
     showgrid="false"
     inkscape:zoom="0.42426966"
     inkscape:cx="363.125"
     inkscape:cy="278.125"
     inkscape:window-x="98"
     inkscape:window-y="36"
     inkscape:window-maximized="0"
     inkscape:current-layer="g3072" /><g
     id="g3072"
     inkscape:groupmode="layer"
     inkscape:label="mesh-diagram"
     transform="matrix(1.25,0,0,-1.25,0,556.25)"><g
       id="g3074"
       transform="translate(-7,-176)"><g
         id="g3076" /><g
         id="g3090"><g
           clip-path="url(#clipPath3078)"
           id="g3092"><g
             id="g3094"><path
               d="m -373.559,751.519 1347.117,0 0,-671.039 -1347.117,0 0,671.039 z"
               style="fill:#ffffff;fill-opacity:1;fill-rule:nonzero;stroke:none"
               id="path3096" /><path
               d="m 68.738,734.042 586.156,0 0,-570.695 -586.156,0 0,570.695 z"
               style="fill:#ffffff;fill-opacity:1;fill-rule:nonzero;stroke:none"
               id="path3098" /></g><g
             id="g3100"><g
               clip-path="url(#clipPath3082)"
               id="g3102"><g
                 transform="translate(0,-0.110229)"
                 id="g3104"><g
                   id="g3106"><g
                     clip-path="url(#clipPath3086)"
                     id="g3108"><g
                       id="g3110"><path
                         d="m 109.812,280.492 24.622,20.313 24.117,19.898 23.629,19.492 23.148,19.102 22.692,18.719 22.242,18.347 21.808,17.992 21.383,17.641 20.977,17.305 20.578,16.976 20.187,16.657 19.817,16.347 19.445,16.043 19.094,15.754 18.746,15.465 18.41,15.187 18.082,14.918 17.762,14.653 17.453,14.398 17.148,14.149"
                         style="fill:none;stroke:#000000;stroke-opacity:1;stroke-width:2;stroke-linecap:butt;stroke-linejoin:round;stroke-miterlimit:10;stroke-dasharray:none"
                         id="path3112" /><path
                         d="m 128.266,274.547 24.507,20.437 24,20.016 23.508,19.609 23.039,19.211 22.575,18.828 22.128,18.457 21.696,18.09 21.273,17.743 20.863,17.402 20.469,17.07 20.082,16.75 19.707,16.434 19.34,16.133 18.988,15.832 18.641,15.546 18.309,15.27 17.976,14.992 17.664,14.731 17.352,14.472 17.051,14.219"
                         style="fill:none;stroke:#000000;stroke-opacity:1;stroke-width:2;stroke-linecap:butt;stroke-linejoin:round;stroke-miterlimit:10;stroke-dasharray:none"
                         id="path3114" /><path
                         d="m 146.836,268.57 24.383,20.559 23.883,20.137 23.394,19.722 22.918,19.328 22.457,18.938 22.016,18.558 21.582,18.2 21.16,17.84 20.75,17.5 20.359,17.164 19.973,16.839 19.598,16.528 19.234,16.215 18.879,15.922 18.535,15.628 18.203,15.348 17.875,15.07 17.559,14.809 17.25,14.543 16.949,14.293"
                         style="fill:none;stroke:#000000;stroke-opacity:1;stroke-width:2;stroke-linecap:butt;stroke-linejoin:round;stroke-miterlimit:10;stroke-dasharray:none"
                         id="path3116" /><path
                         d="m 165.516,262.551 24.265,20.687 23.758,20.258 23.273,19.84 22.801,19.441 22.34,19.047 21.899,18.668 21.464,18.301 21.047,17.945 20.641,17.598 20.242,17.258 19.863,16.933 19.485,16.614 19.125,16.308 18.773,16.004 18.43,15.711 18.094,15.43 17.773,15.152 17.453,14.879 17.149,14.621 16.847,14.363"
                         style="fill:none;stroke:#000000;stroke-opacity:1;stroke-width:2;stroke-linecap:butt;stroke-linejoin:round;stroke-miterlimit:10;stroke-dasharray:none"
                         id="path3118" /><path
                         d="m 184.312,256.5 24.141,20.812 23.637,20.379 23.152,19.961 22.68,19.555 22.219,19.16 21.781,18.774 21.348,18.406 20.929,18.047 20.524,17.695 20.132,17.359 19.747,17.024 19.375,16.707 19.015,16.394 18.66,16.09 18.321,15.797 17.988,15.508 17.668,15.23 17.348,14.961 17.043,14.692 16.746,14.437"
                         style="fill:none;stroke:#000000;stroke-opacity:1;stroke-width:2;stroke-linecap:butt;stroke-linejoin:round;stroke-miterlimit:10;stroke-dasharray:none"
                         id="path3120" /><path
                         d="m 109.812,280.492 18.454,-5.945 18.57,-5.977 18.68,-6.019 18.796,-6.051"
                         style="fill:none;stroke:#000000;stroke-opacity:1;stroke-width:2;stroke-linecap:butt;stroke-linejoin:round;stroke-miterlimit:10;stroke-dasharray:none"
                         id="path3122" /><path
                         d="m 134.434,300.805 18.339,-5.821 18.446,-5.855 18.562,-5.891 18.672,-5.926"
                         style="fill:none;stroke:#000000;stroke-opacity:1;stroke-width:2;stroke-linecap:butt;stroke-linejoin:round;stroke-miterlimit:10;stroke-dasharray:none"
                         id="path3124" /><path
                         d="m 158.551,320.703 18.222,-5.703 18.329,-5.734 18.437,-5.77 18.551,-5.805"
                         style="fill:none;stroke:#000000;stroke-opacity:1;stroke-width:2;stroke-linecap:butt;stroke-linejoin:round;stroke-miterlimit:10;stroke-dasharray:none"
                         id="path3126" /><path
                         d="m 182.18,340.195 18.101,-5.586 18.215,-5.621 18.316,-5.652 18.43,-5.684"
                         style="fill:none;stroke:#000000;stroke-opacity:1;stroke-width:2;stroke-linecap:butt;stroke-linejoin:round;stroke-miterlimit:10;stroke-dasharray:none"
                         id="path3128" /><path
                         d="m 205.328,359.297 17.992,-5.477 18.094,-5.504 18.199,-5.539 18.309,-5.57"
                         style="fill:none;stroke:#000000;stroke-opacity:1;stroke-width:2;stroke-linecap:butt;stroke-linejoin:round;stroke-miterlimit:10;stroke-dasharray:none"
                         id="path3130" /><path
                         d="m 228.02,378.016 17.875,-5.368 17.976,-5.394 18.082,-5.43 18.188,-5.457"
                         style="fill:none;stroke:#000000;stroke-opacity:1;stroke-width:2;stroke-linecap:butt;stroke-linejoin:round;stroke-miterlimit:10;stroke-dasharray:none"
                         id="path3132" /><path
                         d="m 250.262,396.363 17.761,-5.258 17.864,-5.293 17.965,-5.32 18.07,-5.351"
                         style="fill:none;stroke:#000000;stroke-opacity:1;stroke-width:2;stroke-linecap:butt;stroke-linejoin:round;stroke-miterlimit:10;stroke-dasharray:none"
                         id="path3134" /><path
                         d="m 272.07,414.355 17.649,-5.16 17.75,-5.183 17.847,-5.219 17.954,-5.246"
                         style="fill:none;stroke:#000000;stroke-opacity:1;stroke-width:2;stroke-linecap:butt;stroke-linejoin:round;stroke-miterlimit:10;stroke-dasharray:none"
                         id="path3136" /><path
                         d="m 293.453,431.996 17.539,-5.058 17.637,-5.086 17.734,-5.114 17.836,-5.144"
                         style="fill:none;stroke:#000000;stroke-opacity:1;stroke-width:2;stroke-linecap:butt;stroke-linejoin:round;stroke-miterlimit:10;stroke-dasharray:none"
                         id="path3138" /><path
                         d="m 314.43,449.301 17.425,-4.961 17.524,-4.988 17.625,-5.016 17.719,-5.047"
                         style="fill:none;stroke:#000000;stroke-opacity:1;stroke-width:2;stroke-linecap:butt;stroke-linejoin:round;stroke-miterlimit:10;stroke-dasharray:none"
                         id="path3140" /><path
                         d="m 335.008,466.277 17.316,-4.867 17.414,-4.894 17.508,-4.922 17.609,-4.946"
                         style="fill:none;stroke:#000000;stroke-opacity:1;stroke-width:2;stroke-linecap:butt;stroke-linejoin:round;stroke-miterlimit:10;stroke-dasharray:none"
                         id="path3142" /><path
                         d="m 355.195,482.934 17.211,-4.774 17.305,-4.805 17.398,-4.828 17.493,-4.855"
                         style="fill:none;stroke:#000000;stroke-opacity:1;stroke-width:2;stroke-linecap:butt;stroke-linejoin:round;stroke-miterlimit:10;stroke-dasharray:none"
                         id="path3144" /><path
                         d="m 375.012,499.281 17.101,-4.687 17.196,-4.711 17.285,-4.742 17.383,-4.762"
                         style="fill:none;stroke:#000000;stroke-opacity:1;stroke-width:2;stroke-linecap:butt;stroke-linejoin:round;stroke-miterlimit:10;stroke-dasharray:none"
                         id="path3146" /><path
                         d="m 394.457,515.324 16.996,-4.597 17.09,-4.629 17.176,-4.649 17.273,-4.676"
                         style="fill:none;stroke:#000000;stroke-opacity:1;stroke-width:2;stroke-linecap:butt;stroke-linejoin:round;stroke-miterlimit:10;stroke-dasharray:none"
                         id="path3148" /><path
                         d="m 413.551,531.078 16.89,-4.519 16.981,-4.539 17.07,-4.567 17.16,-4.59"
                         style="fill:none;stroke:#000000;stroke-opacity:1;stroke-width:2;stroke-linecap:butt;stroke-linejoin:round;stroke-miterlimit:10;stroke-dasharray:none"
                         id="path3150" /><path
                         d="m 432.297,546.543 16.785,-4.438 16.875,-4.457 16.965,-4.484 17.051,-4.504"
                         style="fill:none;stroke:#000000;stroke-opacity:1;stroke-width:2;stroke-linecap:butt;stroke-linejoin:round;stroke-miterlimit:10;stroke-dasharray:none"
                         id="path3152" /><path
                         d="m 450.707,561.73 16.684,-4.355 16.769,-4.379 16.856,-4.402 16.945,-4.426"
                         style="fill:none;stroke:#000000;stroke-opacity:1;stroke-width:2;stroke-linecap:butt;stroke-linejoin:round;stroke-miterlimit:10;stroke-dasharray:none"
                         id="path3154" /><path
                         d="m 468.789,576.648 16.578,-4.281 16.668,-4.301 16.754,-4.32 16.84,-4.348"
                         style="fill:none;stroke:#000000;stroke-opacity:1;stroke-width:2;stroke-linecap:butt;stroke-linejoin:round;stroke-miterlimit:10;stroke-dasharray:none"
                         id="path3156" /><path
                         d="m 486.551,591.301 16.48,-4.203 16.563,-4.223 16.648,-4.25 16.735,-4.266"
                         style="fill:none;stroke:#000000;stroke-opacity:1;stroke-width:2;stroke-linecap:butt;stroke-linejoin:round;stroke-miterlimit:10;stroke-dasharray:none"
                         id="path3158" /><path
                         d="m 504.004,605.699 16.379,-4.129 16.461,-4.152 16.547,-4.172 16.629,-4.195"
                         style="fill:none;stroke:#000000;stroke-opacity:1;stroke-width:2;stroke-linecap:butt;stroke-linejoin:round;stroke-miterlimit:10;stroke-dasharray:none"
                         id="path3160" /><path
                         d="m 521.152,619.848 16.282,-4.059 16.359,-4.078 16.445,-4.102 16.528,-4.121"
                         style="fill:none;stroke:#000000;stroke-opacity:1;stroke-width:2;stroke-linecap:butt;stroke-linejoin:round;stroke-miterlimit:10;stroke-dasharray:none"
                         id="path3162" /></g></g></g></g></g></g><g
             id="g3164"><path
               d="m 50.285,271.999 112,-38.855"
               style="fill:#0000ff;fill-opacity:1;fill-rule:nonzero;stroke:#4c72b0;stroke-opacity:1;stroke-width:4;stroke-linecap:round;stroke-linejoin:miter;stroke-miterlimit:2;stroke-dasharray:none"
               id="path3166" /><g
               transform="matrix(-1,0.346939,-0.346939,-1,0,841.88977)"
               id="g3168"><path
                 d="m -318.241,493.094 7.556,-7.559 -26.454,7.557 26.456,7.558 -7.558,-7.556 z"
                 style="fill:#4c72b0;fill-opacity:1;fill-rule:evenodd;stroke:#4c72b0;stroke-opacity:1;stroke-width:1.889513;stroke-linecap:butt;stroke-linejoin:miter;stroke-miterlimit:4;stroke-dasharray:none"
                 id="path3170" /></g><path
               d="m 50.285,273.144 112,93.715"
               style="fill:#88aa00;fill-opacity:1;fill-rule:nonzero;stroke:#56a968;stroke-opacity:1;stroke-width:4;stroke-linecap:round;stroke-linejoin:miter;stroke-miterlimit:4;stroke-dasharray:none"
               id="path3172" /><g
               transform="matrix(-1,-0.836735,0.836735,-1,0,841.88977)"
               id="g3174"><path
                 d="m 150.608,359.282 6.135,-6.137 -21.473,6.135 21.475,6.136 -6.137,-6.134 z"
                 style="fill:#56a968;fill-opacity:1;fill-rule:evenodd;stroke:#56a968;stroke-opacity:1;stroke-width:1.533874;stroke-linecap:butt;stroke-linejoin:miter;stroke-miterlimit:4;stroke-dasharray:none"
                 id="path3176" /></g><text
               transform="matrix(0.94544812,-0.32577269,-0.32577269,-0.94544812,20.350436,234.06594)"
               id="text3178"><tspan
                 style="fill:#4c72b0;fill-opacity:1;fill-rule:nonzero;stroke:none;font-family:FreeSans;font-variant:normal;font-weight:normal;font-size:32.00000002;writing-mode:lr;-inkscape-font-specification:FreeSans"
                 x="0 7.104 24.28800001 40.48000002 51.10400003 68.16000003 85.53600004 101.31200005 108.41600005 125.60000006 143.20000007 151.20000007"
                 y="0"
                 sodipodi:role="line"
                 id="tspan3180">increasing j</tspan></text>
<text
               transform="matrix(0.75092497,0.66038753,0.66038753,-0.75092497,21.436918,288.30171)"
               id="text3182"><tspan
                 style="fill:#56a968;fill-opacity:1;fill-rule:nonzero;stroke:none;font-family:FreeSans;font-variant:normal;font-weight:normal;font-size:32;writing-mode:lr;-inkscape-font-specification:FreeSans"
                 x="0 7.104 24.288 40.48 51.104 68.16 85.53600001 101.31200001 108.41600001 125.60000001 143.20000001 151.20000001"
                 y="0"
                 sodipodi:role="line"
                 id="tspan3184">increasing i</tspan></text>
</g></g></g></g></g></svg>