<?xml version="1.0" encoding="UTF-8" standalone="no"?>
<!-- Created with Inkscape (http://www.inkscape.org/) -->

<svg
   xmlns:dc="http://purl.org/dc/elements/1.1/"
   xmlns:cc="http://creativecommons.org/ns#"
   xmlns:rdf="http://www.w3.org/1999/02/22-rdf-syntax-ns#"
   xmlns:svg="http://www.w3.org/2000/svg"
   xmlns="http://www.w3.org/2000/svg"
   xmlns:sodipodi="http://sodipodi.sourceforge.net/DTD/sodipodi-0.dtd"
   xmlns:inkscape="http://www.inkscape.org/namespaces/inkscape"
   id="svg3779"
   version="1.1"
   inkscape:version="0.48.4 r9939"
   width="1683.9"
   height="838.8"
   xml:space="preserve"
   sodipodi:docname="sweep.pdf"><options
     id="options3785"><rdf:RDF><cc:Work
         rdf:about=""><dc:format>image/svg+xml</dc:format><dc:type
           rdf:resource="http://purl.org/dc/dcmitype/StillImage" /><dc:title></dc:title></cc:Work></rdf:RDF></options><defs
     id="defs3783"><clipPath
       clipPathUnits="userSpaceOnUse"
       id="clipPath3797"><path
         d="m 30.8715,30.756 625.2882,0 0,609.528 -625.2882,0 0,-609.528 z"
         id="path3799" /></clipPath><clipPath
       clipPathUnits="userSpaceOnUse"
       id="clipPath3897"><path
         d="m 690.9603,30.756 625.2882,0 0,609.528 -625.2882,0 0,-609.528 z"
         id="path3899" /></clipPath></defs><sodipodi:namedview
     pagecolor="#ffffff"
     bordercolor="#666666"
     borderopacity="1"
     objecttolerance="10"
     gridtolerance="10"
     guidetolerance="10"
     inkscape:pageopacity="0"
     inkscape:pageshadow="2"
     inkscape:window-width="640"
     inkscape:window-height="480"
     id="namedview3781"
     showgrid="false"
     inkscape:zoom="0.22447889"
     inkscape:cx="841.95001"
     inkscape:cy="419.39999"
     inkscape:window-x="98"
     inkscape:window-y="36"
     inkscape:window-maximized="0"
     inkscape:current-layer="g3787" /><g
     id="g3787"
     inkscape:groupmode="layer"
     inkscape:label="sweep"
     transform="matrix(1.25,0,0,-1.25,0,838.8)"><path
       d="m 0,0 1347.12,0 0,671.04 L 0,671.04 0,0 z"
       style="fill:#ffffff;fill-opacity:1;fill-rule:nonzero;stroke:none"
       id="path3789" /><path
       d="m 30.8715,30.756 625.2882,0 0,609.528 -625.2882,0 0,-609.528 z"
       style="fill:#ffffff;fill-opacity:1;fill-rule:nonzero;stroke:none"
       id="path3791" /><g
       id="g3793"><g
         id="g3795"
         clip-path="url(#clipPath3797)"><path
           d="m 60.35909,145.05472 27.206459,22.46013 26.630901,21.98499 26.07343,21.52476 25.53327,21.07883 25.00972,20.64663 24.50212,20.22758 24.00981,19.82116 23.5322,19.42686 23.06869,19.04422 22.61875,18.67277 22.18184,18.31209 21.75747,17.96175 21.34516,17.62137 20.94447,17.29058 20.55495,16.96901 20.17619,16.65634 19.80782,16.35222 19.44943,16.05637 19.10069,15.76846 18.76125,15.48823 -425.058161,-350.90422 26.630901,21.98499 26.07343,21.52476 25.53327,21.07883 25.00972,20.64663 24.50212,20.22758 24.00981,19.82116 23.5322,19.42686 23.06869,19.04422 22.61875,18.67277 22.18184,18.31209 21.75747,17.96175 21.34516,17.62137 20.94447,17.29058 20.55495,16.96901 20.17619,16.65634 19.80782,16.35222 19.44943,16.05637 19.10069,15.76846 18.76125,15.48823"
           style="fill:none;stroke:#000000;stroke-opacity:1;stroke-width:2;stroke-linecap:butt;stroke-linejoin:round;stroke-miterlimit:10;stroke-dasharray:none"
           id="path3801" /><path
           d="m 100.9674,131.86495 26.9386,22.7415 26.36522,22.25744 25.80994,21.78869 25.27202,21.33458 24.75075,20.89452 24.24544,20.46795 23.75546,20.05429 23.28016,19.65306 22.81901,19.26374 22.37141,18.88589 21.93685,18.51904 21.51484,18.16278 21.1049,17.81669 20.70654,17.48042 20.31937,17.15356 19.94296,16.8358 19.57691,16.52677 19.22084,16.22619 18.87441,15.93373 18.53725,15.6491 -420.40428,-354.90424 26.36522,22.25744 25.80994,21.78869 25.27202,21.33458 24.75075,20.89452 24.24544,20.46795 23.75546,20.05429 23.28016,19.65306 22.81901,19.26374 22.37141,18.88589 21.93685,18.51904 21.51484,18.16278 21.1049,17.81669 20.70654,17.48042 20.31937,17.15356 19.94296,16.8358 19.57691,16.52677 19.22084,16.22619 18.87441,15.93373 18.53725,15.6491"
           style="fill:none;stroke:#000000;stroke-opacity:1;stroke-width:2;stroke-linecap:butt;stroke-linejoin:round;stroke-miterlimit:10;stroke-dasharray:none"
           id="path3803" /><path
           d="m 142.08881,118.50851 26.66185,23.02819 26.09084,22.53501 25.53798,22.0575 25.00251,21.595 24.48371,21.14691 23.98089,20.71262 23.4934,20.29157 23.02063,19.88322 22.56198,19.48709 22.11691,19.10267 21.68488,18.72952 21.26539,18.3672 20.85794,18.01529 20.4621,17.67339 20.07742,17.34114 19.7035,17.01817 19.33991,16.70414 18.9863,16.39872 18.6423,16.10161 18.30756,15.81249 -415.61615,-358.97326 26.09084,22.53501 25.53798,22.0575 25.00251,21.595 24.48371,21.14691 23.98089,20.71262 23.4934,20.29157 23.02063,19.88322 22.56198,19.48709 22.11691,19.10267 21.68488,18.72952 21.26539,18.3672 20.85794,18.01529 20.4621,17.67339 20.07742,17.34114 19.7035,17.01817 19.33991,16.70414 18.9863,16.39872 18.6423,16.10161 18.30756,15.81249"
           style="fill:none;stroke:#000000;stroke-opacity:1;stroke-width:2;stroke-linecap:butt;stroke-linejoin:round;stroke-miterlimit:10;stroke-dasharray:none"
           id="path3805" /><path
           d="m 60.35909,145.05472 40.60831,-13.18977 41.12141,-13.35644"
           style="fill:none;stroke:#000000;stroke-opacity:1;stroke-width:2;stroke-linecap:butt;stroke-linejoin:round;stroke-miterlimit:10;stroke-dasharray:none"
           id="path3807" /><path
           d="M 87.565549,167.51485 127.906,154.60645 168.75066,141.5367"
           style="fill:none;stroke:#000000;stroke-opacity:1;stroke-width:2;stroke-linecap:butt;stroke-linejoin:round;stroke-miterlimit:10;stroke-dasharray:none"
           id="path3809" /><path
           d="m 114.19645,189.49984 40.07477,-12.63595 40.57028,-12.79218"
           style="fill:none;stroke:#000000;stroke-opacity:1;stroke-width:2;stroke-linecap:butt;stroke-linejoin:round;stroke-miterlimit:10;stroke-dasharray:none"
           id="path3811" /><path
           d="m 140.26988,211.0246 39.81128,-12.37202 40.29832,-12.52337"
           style="fill:none;stroke:#000000;stroke-opacity:1;stroke-width:2;stroke-linecap:butt;stroke-linejoin:round;stroke-miterlimit:10;stroke-dasharray:none"
           id="path3813" /><path
           d="m 165.80315,232.10343 39.55003,-12.11627 40.02881,-12.26295"
           style="fill:none;stroke:#000000;stroke-opacity:1;stroke-width:2;stroke-linecap:butt;stroke-linejoin:round;stroke-miterlimit:10;stroke-dasharray:none"
           id="path3815" /><path
           d="m 190.81287,252.75006 39.29106,-11.86838 39.76177,-12.01056"
           style="fill:none;stroke:#000000;stroke-opacity:1;stroke-width:2;stroke-linecap:butt;stroke-linejoin:round;stroke-miterlimit:10;stroke-dasharray:none"
           id="path3817" /><path
           d="m 215.31499,272.97764 39.03438,-11.62801 39.49722,-11.76589"
           style="fill:none;stroke:#000000;stroke-opacity:1;stroke-width:2;stroke-linecap:butt;stroke-linejoin:round;stroke-miterlimit:10;stroke-dasharray:none"
           id="path3819" /><path
           d="m 239.3248,292.7988 38.78003,-11.39488 39.23516,-11.52861"
           style="fill:none;stroke:#000000;stroke-opacity:1;stroke-width:2;stroke-linecap:butt;stroke-linejoin:round;stroke-miterlimit:10;stroke-dasharray:none"
           id="path3821" /><path
           d="m 262.857,312.22566 38.52799,-11.16868 38.97563,-11.29845"
           style="fill:none;stroke:#000000;stroke-opacity:1;stroke-width:2;stroke-linecap:butt;stroke-linejoin:round;stroke-miterlimit:10;stroke-dasharray:none"
           id="path3823" /><path
           d="m 285.92569,331.26988 38.27831,-10.94916 38.7186,-11.0751"
           style="fill:none;stroke:#000000;stroke-opacity:1;stroke-width:2;stroke-linecap:butt;stroke-linejoin:round;stroke-miterlimit:10;stroke-dasharray:none"
           id="path3825" /><path
           d="m 308.54444,349.94265 38.03097,-10.73604 38.4641,-10.85832"
           style="fill:none;stroke:#000000;stroke-opacity:1;stroke-width:2;stroke-linecap:butt;stroke-linejoin:round;stroke-miterlimit:10;stroke-dasharray:none"
           id="path3827" /><path
           d="m 330.72628,368.25474 37.78598,-10.52909 38.21213,-10.64784"
           style="fill:none;stroke:#000000;stroke-opacity:1;stroke-width:2;stroke-linecap:butt;stroke-linejoin:round;stroke-miterlimit:10;stroke-dasharray:none"
           id="path3829" /><path
           d="m 352.48375,386.21649 37.54335,-10.32806 37.96268,-10.44342"
           style="fill:none;stroke:#000000;stroke-opacity:1;stroke-width:2;stroke-linecap:butt;stroke-linejoin:round;stroke-miterlimit:10;stroke-dasharray:none"
           id="path3831" /><path
           d="M 373.82891,403.83786 411.132,393.70512 448.84772,383.4603"
           style="fill:none;stroke:#000000;stroke-opacity:1;stroke-width:2;stroke-linecap:butt;stroke-linejoin:round;stroke-miterlimit:10;stroke-dasharray:none"
           id="path3833" /><path
           d="m 394.77338,421.12844 37.06516,-9.9429 37.47128,-10.05185"
           style="fill:none;stroke:#000000;stroke-opacity:1;stroke-width:2;stroke-linecap:butt;stroke-linejoin:round;stroke-miterlimit:10;stroke-dasharray:none"
           id="path3835" /><path
           d="m 415.32833,438.09745 36.82958,-9.75835 37.22933,-9.86427"
           style="fill:none;stroke:#000000;stroke-opacity:1;stroke-width:2;stroke-linecap:butt;stroke-linejoin:round;stroke-miterlimit:10;stroke-dasharray:none"
           id="path3837" /><path
           d="m 435.50452,454.75379 36.59635,-9.57889 36.98987,-9.6819"
           style="fill:none;stroke:#000000;stroke-opacity:1;stroke-width:2;stroke-linecap:butt;stroke-linejoin:round;stroke-miterlimit:10;stroke-dasharray:none"
           id="path3839" /><path
           d="m 455.31234,471.10601 36.36544,-9.40434 36.75287,-9.50453"
           style="fill:none;stroke:#000000;stroke-opacity:1;stroke-width:2;stroke-linecap:butt;stroke-linejoin:round;stroke-miterlimit:10;stroke-dasharray:none"
           id="path3841" /><path
           d="m 474.76177,487.16238 36.13685,-9.23452 36.51833,-9.332"
           style="fill:none;stroke:#000000;stroke-opacity:1;stroke-width:2;stroke-linecap:butt;stroke-linejoin:round;stroke-miterlimit:10;stroke-dasharray:none"
           id="path3843" /><path
           d="m 493.86246,502.93084 35.91057,-9.06925 36.28622,-9.16412"
           style="fill:none;stroke:#000000;stroke-opacity:1;stroke-width:2;stroke-linecap:butt;stroke-linejoin:round;stroke-miterlimit:10;stroke-dasharray:none"
           id="path3845" /><path
           d="m 512.62371,518.41907 35.68657,-8.90838 36.05653,-9.00073"
           style="fill:none;stroke:#000000;stroke-opacity:1;stroke-width:2;stroke-linecap:butt;stroke-linejoin:round;stroke-miterlimit:10;stroke-dasharray:none"
           id="path3847" /><path
           d="M 87.565549,167.51485 127.906,154.60645 168.75066,141.5367"
           style="fill:none;stroke:#000000;stroke-opacity:1;stroke-width:2;stroke-linecap:butt;stroke-linejoin:round;stroke-miterlimit:10;stroke-dasharray:none"
           id="path3849" /><path
           d="m 114.19645,189.49984 40.07477,-12.63595 40.57028,-12.79218"
           style="fill:none;stroke:#000000;stroke-opacity:1;stroke-width:2;stroke-linecap:butt;stroke-linejoin:round;stroke-miterlimit:10;stroke-dasharray:none"
           id="path3851" /><path
           d="m 140.26988,211.0246 39.81128,-12.37202 40.29832,-12.52337"
           style="fill:none;stroke:#000000;stroke-opacity:1;stroke-width:2;stroke-linecap:butt;stroke-linejoin:round;stroke-miterlimit:10;stroke-dasharray:none"
           id="path3853" /><path
           d="m 165.80315,232.10343 39.55003,-12.11627 40.02881,-12.26295"
           style="fill:none;stroke:#000000;stroke-opacity:1;stroke-width:2;stroke-linecap:butt;stroke-linejoin:round;stroke-miterlimit:10;stroke-dasharray:none"
           id="path3855" /><path
           d="m 190.81287,252.75006 39.29106,-11.86838 39.76177,-12.01056"
           style="fill:none;stroke:#000000;stroke-opacity:1;stroke-width:2;stroke-linecap:butt;stroke-linejoin:round;stroke-miterlimit:10;stroke-dasharray:none"
           id="path3857" /><path
           d="m 215.31499,272.97764 39.03438,-11.62801 39.49722,-11.76589"
           style="fill:none;stroke:#000000;stroke-opacity:1;stroke-width:2;stroke-linecap:butt;stroke-linejoin:round;stroke-miterlimit:10;stroke-dasharray:none"
           id="path3859" /><path
           d="m 239.3248,292.7988 38.78003,-11.39488 39.23516,-11.52861"
           style="fill:none;stroke:#000000;stroke-opacity:1;stroke-width:2;stroke-linecap:butt;stroke-linejoin:round;stroke-miterlimit:10;stroke-dasharray:none"
           id="path3861" /><path
           d="m 262.857,312.22566 38.52799,-11.16868 38.97563,-11.29845"
           style="fill:none;stroke:#000000;stroke-opacity:1;stroke-width:2;stroke-linecap:butt;stroke-linejoin:round;stroke-miterlimit:10;stroke-dasharray:none"
           id="path3863" /><path
           d="m 285.92569,331.26988 38.27831,-10.94916 38.7186,-11.0751"
           style="fill:none;stroke:#000000;stroke-opacity:1;stroke-width:2;stroke-linecap:butt;stroke-linejoin:round;stroke-miterlimit:10;stroke-dasharray:none"
           id="path3865" /><path
           d="m 308.54444,349.94265 38.03097,-10.73604 38.4641,-10.85832"
           style="fill:none;stroke:#000000;stroke-opacity:1;stroke-width:2;stroke-linecap:butt;stroke-linejoin:round;stroke-miterlimit:10;stroke-dasharray:none"
           id="path3867" /><path
           d="m 330.72628,368.25474 37.78598,-10.52909 38.21213,-10.64784"
           style="fill:none;stroke:#000000;stroke-opacity:1;stroke-width:2;stroke-linecap:butt;stroke-linejoin:round;stroke-miterlimit:10;stroke-dasharray:none"
           id="path3869" /><path
           d="m 352.48375,386.21649 37.54335,-10.32806 37.96268,-10.44342"
           style="fill:none;stroke:#000000;stroke-opacity:1;stroke-width:2;stroke-linecap:butt;stroke-linejoin:round;stroke-miterlimit:10;stroke-dasharray:none"
           id="path3871" /><path
           d="M 373.82891,403.83786 411.132,393.70512 448.84772,383.4603"
           style="fill:none;stroke:#000000;stroke-opacity:1;stroke-width:2;stroke-linecap:butt;stroke-linejoin:round;stroke-miterlimit:10;stroke-dasharray:none"
           id="path3873" /><path
           d="m 394.77338,421.12844 37.06516,-9.9429 37.47128,-10.05185"
           style="fill:none;stroke:#000000;stroke-opacity:1;stroke-width:2;stroke-linecap:butt;stroke-linejoin:round;stroke-miterlimit:10;stroke-dasharray:none"
           id="path3875" /><path
           d="m 415.32833,438.09745 36.82958,-9.75835 37.22933,-9.86427"
           style="fill:none;stroke:#000000;stroke-opacity:1;stroke-width:2;stroke-linecap:butt;stroke-linejoin:round;stroke-miterlimit:10;stroke-dasharray:none"
           id="path3877" /><path
           d="m 435.50452,454.75379 36.59635,-9.57889 36.98987,-9.6819"
           style="fill:none;stroke:#000000;stroke-opacity:1;stroke-width:2;stroke-linecap:butt;stroke-linejoin:round;stroke-miterlimit:10;stroke-dasharray:none"
           id="path3879" /><path
           d="m 455.31234,471.10601 36.36544,-9.40434 36.75287,-9.50453"
           style="fill:none;stroke:#000000;stroke-opacity:1;stroke-width:2;stroke-linecap:butt;stroke-linejoin:round;stroke-miterlimit:10;stroke-dasharray:none"
           id="path3881" /><path
           d="m 474.76177,487.16238 36.13685,-9.23452 36.51833,-9.332"
           style="fill:none;stroke:#000000;stroke-opacity:1;stroke-width:2;stroke-linecap:butt;stroke-linejoin:round;stroke-miterlimit:10;stroke-dasharray:none"
           id="path3883" /><path
           d="m 493.86246,502.93084 35.91057,-9.06925 36.28622,-9.16412"
           style="fill:none;stroke:#000000;stroke-opacity:1;stroke-width:2;stroke-linecap:butt;stroke-linejoin:round;stroke-miterlimit:10;stroke-dasharray:none"
           id="path3885" /><path
           d="m 512.62371,518.41907 35.68657,-8.90838 36.05653,-9.00073"
           style="fill:none;stroke:#000000;stroke-opacity:1;stroke-width:2;stroke-linecap:butt;stroke-linejoin:round;stroke-miterlimit:10;stroke-dasharray:none"
           id="path3887" /></g></g><g
       id="g3889"><path
         d="m 690.9603,30.756 625.2882,0 0,609.528 -625.2882,0 0,-609.528 z"
         style="fill:#ffffff;fill-opacity:1;fill-rule:nonzero;stroke:none"
         id="path3891" /></g><g
       id="g3893"><g
         id="g3895"
         clip-path="url(#clipPath3897)"><path
           d="m 797.73017,127.73256 11.7443,27.56504 11.44257,26.85684 11.15231,26.17559 10.87297,25.51994 10.60398,24.8886 10.34486,24.28042 10.09513,23.69426 9.85432,23.12907 9.62203,22.58386 9.39786,22.05771 35.92127,14.12207 35.38321,13.91053 34.85712,13.70372 34.3428,13.50149 33.8396,13.3037 33.3475,13.11022 32.8661,12.92093 32.3949,12.73572 31.9338,12.55445 31.4826,12.37704"
           style="fill:none;stroke:#000000;stroke-opacity:1;stroke-width:2;stroke-linecap:butt;stroke-linejoin:round;stroke-miterlimit:10;stroke-dasharray:none"
           id="path3901" /><path
           d="m 839.16463,114.32369 11.27511,27.91283 10.98364,27.19127 10.70334,26.49734 10.43362,25.82963 10.17398,25.18685 9.9239,24.56777 9.68294,23.97123 9.45065,23.39617 9.22661,22.84154 9.01046,22.30642 35.83847,14.27975 35.29875,14.06468 34.771,13.85444 34.2551,13.64886 33.7506,13.44784 33.2571,13.25122 32.7745,13.05889 32.3021,12.87071 31.84,12.68656 31.3877,12.50635"
           style="fill:none;stroke:#000000;stroke-opacity:1;stroke-width:2;stroke-linecap:butt;stroke-linejoin:round;stroke-miterlimit:10;stroke-dasharray:none"
           id="path3903" /><path
           d="m 881.127,100.74398 10.79306,28.26724 10.51233,27.53199 10.2424,26.82506 9.98275,26.145 9.73284,25.49049 9.49219,24.86025 9.26037,24.25309 9.03694,23.66791 8.8215,23.10367 8.61366,22.55935 35.75156,14.44009 35.2101,14.2214 34.6809,14.00765 34.1635,13.79867 33.6576,13.59434 33.1629,13.39451 32.6789,13.19906 32.2056,13.00785 31.7424,12.82077 31.289,12.6377"
           style="fill:none;stroke:#000000;stroke-opacity:1;stroke-width:2;stroke-linecap:butt;stroke-linejoin:round;stroke-miterlimit:10;stroke-dasharray:none"
           id="path3905" /><path
           d="M 797.73017,127.73256 839.16463,114.32369 881.127,100.74398"
           style="fill:none;stroke:#000000;stroke-opacity:1;stroke-width:2;stroke-linecap:butt;stroke-linejoin:round;stroke-miterlimit:10;stroke-dasharray:none"
           id="path3907" /><path
           d="m 809.47447,155.2976 40.96527,-13.06108 41.48032,-13.2253"
           style="fill:none;stroke:#000000;stroke-opacity:1;stroke-width:2;stroke-linecap:butt;stroke-linejoin:round;stroke-miterlimit:10;stroke-dasharray:none"
           id="path3909" /><path
           d="m 820.91704,182.15444 40.50634,-12.72665 41.00901,-12.88458"
           style="fill:none;stroke:#000000;stroke-opacity:1;stroke-width:2;stroke-linecap:butt;stroke-linejoin:round;stroke-miterlimit:10;stroke-dasharray:none"
           id="path3911" /><path
           d="m 832.06935,208.33003 40.05737,-12.4049 40.54807,-12.55686"
           style="fill:none;stroke:#000000;stroke-opacity:1;stroke-width:2;stroke-linecap:butt;stroke-linejoin:round;stroke-miterlimit:10;stroke-dasharray:none"
           id="path3913" /><path
           d="m 842.94232,233.84997 39.61802,-12.09521 40.0972,-12.24149"
           style="fill:none;stroke:#000000;stroke-opacity:1;stroke-width:2;stroke-linecap:butt;stroke-linejoin:round;stroke-miterlimit:10;stroke-dasharray:none"
           id="path3915" /><path
           d="m 853.5463,258.73857 39.18802,-11.79696 39.65606,-11.93785"
           style="fill:none;stroke:#000000;stroke-opacity:1;stroke-width:2;stroke-linecap:butt;stroke-linejoin:round;stroke-miterlimit:10;stroke-dasharray:none"
           id="path3917" /><path
           d="m 863.89116,283.01899 38.76706,-11.50961 39.22435,-11.64537"
           style="fill:none;stroke:#000000;stroke-opacity:1;stroke-width:2;stroke-linecap:butt;stroke-linejoin:round;stroke-miterlimit:10;stroke-dasharray:none"
           id="path3919" /><path
           d="m 873.98629,306.71325 38.35487,-11.23264 38.80178,-11.36351"
           style="fill:none;stroke:#000000;stroke-opacity:1;stroke-width:2;stroke-linecap:butt;stroke-linejoin:round;stroke-miterlimit:10;stroke-dasharray:none"
           id="path3921" /><path
           d="m 883.84061,329.84232 37.9512,-10.96554 38.38807,-11.09177"
           style="fill:none;stroke:#000000;stroke-opacity:1;stroke-width:2;stroke-linecap:butt;stroke-linejoin:round;stroke-miterlimit:10;stroke-dasharray:none"
           id="path3923" /><path
           d="m 893.46264,352.42618 37.55578,-10.70786 37.98296,-10.82964"
           style="fill:none;stroke:#000000;stroke-opacity:1;stroke-width:2;stroke-linecap:butt;stroke-linejoin:round;stroke-miterlimit:10;stroke-dasharray:none"
           id="path3925" /><path
           d="m 902.8605,374.48389 37.16838,-10.45915 37.58616,-10.57671"
           style="fill:none;stroke:#000000;stroke-opacity:1;stroke-width:2;stroke-linecap:butt;stroke-linejoin:round;stroke-miterlimit:10;stroke-dasharray:none"
           id="path3927" /><path
           d="m 938.78177,388.60596 37.08558,-10.30147 37.49925,-10.41637"
           style="fill:none;stroke:#000000;stroke-opacity:1;stroke-width:2;stroke-linecap:butt;stroke-linejoin:round;stroke-miterlimit:10;stroke-dasharray:none"
           id="path3929" /><path
           d="m 974.16498,402.51649 37.00112,-10.14732 37.4106,-10.25965"
           style="fill:none;stroke:#000000;stroke-opacity:1;stroke-width:2;stroke-linecap:butt;stroke-linejoin:round;stroke-miterlimit:10;stroke-dasharray:none"
           id="path3931" /><path
           d="m 1009.0221,416.22021 36.915,-9.9966 37.3205,-10.10644"
           style="fill:none;stroke:#000000;stroke-opacity:1;stroke-width:2;stroke-linecap:butt;stroke-linejoin:round;stroke-miterlimit:10;stroke-dasharray:none"
           id="path3933" /><path
           d="m 1043.3649,429.7217 36.8273,-9.84923 37.2289,-9.95663"
           style="fill:none;stroke:#000000;stroke-opacity:1;stroke-width:2;stroke-linecap:butt;stroke-linejoin:round;stroke-miterlimit:10;stroke-dasharray:none"
           id="path3935" /><path
           d="m 1077.2045,443.0254 36.7383,-9.70509 37.1359,-9.81013"
           style="fill:none;stroke:#000000;stroke-opacity:1;stroke-width:2;stroke-linecap:butt;stroke-linejoin:round;stroke-miterlimit:10;stroke-dasharray:none"
           id="path3937" /><path
           d="m 1110.552,456.13562 36.6479,-9.56409 37.0417,-9.66684"
           style="fill:none;stroke:#000000;stroke-opacity:1;stroke-width:2;stroke-linecap:butt;stroke-linejoin:round;stroke-miterlimit:10;stroke-dasharray:none"
           id="path3939" /><path
           d="m 1143.4181,469.05655 36.5563,-9.42613 36.9461,-9.52667"
           style="fill:none;stroke:#000000;stroke-opacity:1;stroke-width:2;stroke-linecap:butt;stroke-linejoin:round;stroke-miterlimit:10;stroke-dasharray:none"
           id="path3941" /><path
           d="m 1175.813,481.79227 36.4635,-9.29114 36.8496,-9.38953"
           style="fill:none;stroke:#000000;stroke-opacity:1;stroke-width:2;stroke-linecap:butt;stroke-linejoin:round;stroke-miterlimit:10;stroke-dasharray:none"
           id="path3943" /><path
           d="m 1207.7468,494.34672 36.3697,-9.15903 36.752,-9.25532"
           style="fill:none;stroke:#000000;stroke-opacity:1;stroke-width:2;stroke-linecap:butt;stroke-linejoin:round;stroke-miterlimit:10;stroke-dasharray:none"
           id="path3945" /><path
           d="m 1239.2294,506.72376 36.2748,-9.02972 36.6533,-9.12397"
           style="fill:none;stroke:#000000;stroke-opacity:1;stroke-width:2;stroke-linecap:butt;stroke-linejoin:round;stroke-miterlimit:10;stroke-dasharray:none"
           id="path3947" /></g></g></g></svg>