<?xml version="1.0" encoding="UTF-8" standalone="no"?>
<!-- Created with Inkscape (http://www.inkscape.org/) -->

<svg
   xmlns:dc="http://purl.org/dc/elements/1.1/"
   xmlns:cc="http://creativecommons.org/ns#"
   xmlns:rdf="http://www.w3.org/1999/02/22-rdf-syntax-ns#"
   xmlns:svg="http://www.w3.org/2000/svg"
   xmlns="http://www.w3.org/2000/svg"
   xmlns:sodipodi="http://sodipodi.sourceforge.net/DTD/sodipodi-0.dtd"
   xmlns:inkscape="http://www.inkscape.org/namespaces/inkscape"
   id="svg3613"
   version="1.1"
   inkscape:version="0.48.4 r9939"
   width="1683.9"
   height="838.8"
   xml:space="preserve"
   sodipodi:docname="zshear.pdf"><options
     id="options3619"><rdf:RDF><cc:Work
         rdf:about=""><dc:format>image/svg+xml</dc:format><dc:type
           rdf:resource="http://purl.org/dc/dcmitype/StillImage" /><dc:title></dc:title></cc:Work></rdf:RDF></options><defs
     id="defs3617"><clipPath
       clipPathUnits="userSpaceOnUse"
       id="clipPath3631"><path
         d="m 30.8715,30.756 625.2882,0 0,609.528 -625.2882,0 0,-609.528 z"
         id="path3633" /></clipPath><clipPath
       clipPathUnits="userSpaceOnUse"
       id="clipPath3731"><path
         d="m 690.9603,30.756 625.2882,0 0,609.528 -625.2882,0 0,-609.528 z"
         id="path3733" /></clipPath></defs><sodipodi:namedview
     pagecolor="#ffffff"
     bordercolor="#666666"
     borderopacity="1"
     objecttolerance="10"
     gridtolerance="10"
     guidetolerance="10"
     inkscape:pageopacity="0"
     inkscape:pageshadow="2"
     inkscape:window-width="640"
     inkscape:window-height="480"
     id="namedview3615"
     showgrid="false"
     inkscape:zoom="0.2286359"
     inkscape:cx="841.95001"
     inkscape:cy="419.39999"
     inkscape:window-x="113"
     inkscape:window-y="51"
     inkscape:window-maximized="0"
     inkscape:current-layer="g3621" /><g
     id="g3621"
     inkscape:groupmode="layer"
     inkscape:label="zshear"
     transform="matrix(1.25,0,0,-1.25,0,838.8)"><path
       d="m 0,0 1347.12,0 0,671.04 L 0,671.04 0,0 z"
       style="fill:#ffffff;fill-opacity:1;fill-rule:nonzero;stroke:none"
       id="path3623" /><path
       d="m 30.8715,30.756 625.2882,0 0,609.528 -625.2882,0 0,-609.528 z"
       style="fill:#ffffff;fill-opacity:1;fill-rule:nonzero;stroke:none"
       id="path3625" /><g
       id="g3627"><g
         id="g3629"
         clip-path="url(#clipPath3631)"><path
           d="m 60.35909,145.05472 27.206459,22.46013 26.630901,21.98499 26.07343,21.52476 25.53327,21.07883 25.00972,20.64663 24.50212,20.22758 24.00981,19.82116 23.5322,19.42686 23.06869,19.04422 22.61875,18.67277 22.18184,18.31209 21.75747,17.96175 21.34516,17.62137 20.94447,17.29058 20.55495,16.96901 20.17619,16.65634 19.80782,16.35222 19.44943,16.05637 19.10069,15.76846 18.76125,15.48823 -425.058161,-350.90422 26.630901,21.98499 26.07343,21.52476 25.53327,21.07883 25.00972,20.64663 24.50212,20.22758 24.00981,19.82116 23.5322,19.42686 23.06869,19.04422 22.61875,18.67277 22.18184,18.31209 21.75747,17.96175 21.34516,17.62137 20.94447,17.29058 20.55495,16.96901 20.17619,16.65634 19.80782,16.35222 19.44943,16.05637 19.10069,15.76846 18.76125,15.48823"
           style="fill:none;stroke:#000000;stroke-opacity:1;stroke-width:2;stroke-linecap:butt;stroke-linejoin:round;stroke-miterlimit:10;stroke-dasharray:none"
           id="path3635" /><path
           d="m 100.9674,131.86495 26.9386,22.7415 26.36522,22.25744 25.80994,21.78869 25.27202,21.33458 24.75075,20.89452 24.24544,20.46795 23.75546,20.05429 23.28016,19.65306 22.81901,19.26374 22.37141,18.88589 21.93685,18.51904 21.51484,18.16278 21.1049,17.81669 20.70654,17.48042 20.31937,17.15356 19.94296,16.8358 19.57691,16.52677 19.22084,16.22619 18.87441,15.93373 18.53725,15.6491 -420.40428,-354.90424 26.36522,22.25744 25.80994,21.78869 25.27202,21.33458 24.75075,20.89452 24.24544,20.46795 23.75546,20.05429 23.28016,19.65306 22.81901,19.26374 22.37141,18.88589 21.93685,18.51904 21.51484,18.16278 21.1049,17.81669 20.70654,17.48042 20.31937,17.15356 19.94296,16.8358 19.57691,16.52677 19.22084,16.22619 18.87441,15.93373 18.53725,15.6491"
           style="fill:none;stroke:#000000;stroke-opacity:1;stroke-width:2;stroke-linecap:butt;stroke-linejoin:round;stroke-miterlimit:10;stroke-dasharray:none"
           id="path3637" /><path
           d="m 142.08881,118.50851 26.66185,23.02819 26.09084,22.53501 25.53798,22.0575 25.00251,21.595 24.48371,21.14691 23.98089,20.71262 23.4934,20.29157 23.02063,19.88322 22.56198,19.48709 22.11691,19.10267 21.68488,18.72952 21.26539,18.3672 20.85794,18.01529 20.4621,17.67339 20.07742,17.34114 19.7035,17.01817 19.33991,16.70414 18.9863,16.39872 18.6423,16.10161 18.30756,15.81249 -415.61615,-358.97326 26.09084,22.53501 25.53798,22.0575 25.00251,21.595 24.48371,21.14691 23.98089,20.71262 23.4934,20.29157 23.02063,19.88322 22.56198,19.48709 22.11691,19.10267 21.68488,18.72952 21.26539,18.3672 20.85794,18.01529 20.4621,17.67339 20.07742,17.34114 19.7035,17.01817 19.33991,16.70414 18.9863,16.39872 18.6423,16.10161 18.30756,15.81249"
           style="fill:none;stroke:#000000;stroke-opacity:1;stroke-width:2;stroke-linecap:butt;stroke-linejoin:round;stroke-miterlimit:10;stroke-dasharray:none"
           id="path3639" /><path
           d="m 60.35909,145.05472 40.60831,-13.18977 41.12141,-13.35644"
           style="fill:none;stroke:#000000;stroke-opacity:1;stroke-width:2;stroke-linecap:butt;stroke-linejoin:round;stroke-miterlimit:10;stroke-dasharray:none"
           id="path3641" /><path
           d="M 87.565549,167.51485 127.906,154.60645 168.75066,141.5367"
           style="fill:none;stroke:#000000;stroke-opacity:1;stroke-width:2;stroke-linecap:butt;stroke-linejoin:round;stroke-miterlimit:10;stroke-dasharray:none"
           id="path3643" /><path
           d="m 114.19645,189.49984 40.07477,-12.63595 40.57028,-12.79218"
           style="fill:none;stroke:#000000;stroke-opacity:1;stroke-width:2;stroke-linecap:butt;stroke-linejoin:round;stroke-miterlimit:10;stroke-dasharray:none"
           id="path3645" /><path
           d="m 140.26988,211.0246 39.81128,-12.37202 40.29832,-12.52337"
           style="fill:none;stroke:#000000;stroke-opacity:1;stroke-width:2;stroke-linecap:butt;stroke-linejoin:round;stroke-miterlimit:10;stroke-dasharray:none"
           id="path3647" /><path
           d="m 165.80315,232.10343 39.55003,-12.11627 40.02881,-12.26295"
           style="fill:none;stroke:#000000;stroke-opacity:1;stroke-width:2;stroke-linecap:butt;stroke-linejoin:round;stroke-miterlimit:10;stroke-dasharray:none"
           id="path3649" /><path
           d="m 190.81287,252.75006 39.29106,-11.86838 39.76177,-12.01056"
           style="fill:none;stroke:#000000;stroke-opacity:1;stroke-width:2;stroke-linecap:butt;stroke-linejoin:round;stroke-miterlimit:10;stroke-dasharray:none"
           id="path3651" /><path
           d="m 215.31499,272.97764 39.03438,-11.62801 39.49722,-11.76589"
           style="fill:none;stroke:#000000;stroke-opacity:1;stroke-width:2;stroke-linecap:butt;stroke-linejoin:round;stroke-miterlimit:10;stroke-dasharray:none"
           id="path3653" /><path
           d="m 239.3248,292.7988 38.78003,-11.39488 39.23516,-11.52861"
           style="fill:none;stroke:#000000;stroke-opacity:1;stroke-width:2;stroke-linecap:butt;stroke-linejoin:round;stroke-miterlimit:10;stroke-dasharray:none"
           id="path3655" /><path
           d="m 262.857,312.22566 38.52799,-11.16868 38.97563,-11.29845"
           style="fill:none;stroke:#000000;stroke-opacity:1;stroke-width:2;stroke-linecap:butt;stroke-linejoin:round;stroke-miterlimit:10;stroke-dasharray:none"
           id="path3657" /><path
           d="m 285.92569,331.26988 38.27831,-10.94916 38.7186,-11.0751"
           style="fill:none;stroke:#000000;stroke-opacity:1;stroke-width:2;stroke-linecap:butt;stroke-linejoin:round;stroke-miterlimit:10;stroke-dasharray:none"
           id="path3659" /><path
           d="m 308.54444,349.94265 38.03097,-10.73604 38.4641,-10.85832"
           style="fill:none;stroke:#000000;stroke-opacity:1;stroke-width:2;stroke-linecap:butt;stroke-linejoin:round;stroke-miterlimit:10;stroke-dasharray:none"
           id="path3661" /><path
           d="m 330.72628,368.25474 37.78598,-10.52909 38.21213,-10.64784"
           style="fill:none;stroke:#000000;stroke-opacity:1;stroke-width:2;stroke-linecap:butt;stroke-linejoin:round;stroke-miterlimit:10;stroke-dasharray:none"
           id="path3663" /><path
           d="m 352.48375,386.21649 37.54335,-10.32806 37.96268,-10.44342"
           style="fill:none;stroke:#000000;stroke-opacity:1;stroke-width:2;stroke-linecap:butt;stroke-linejoin:round;stroke-miterlimit:10;stroke-dasharray:none"
           id="path3665" /><path
           d="M 373.82891,403.83786 411.132,393.70512 448.84772,383.4603"
           style="fill:none;stroke:#000000;stroke-opacity:1;stroke-width:2;stroke-linecap:butt;stroke-linejoin:round;stroke-miterlimit:10;stroke-dasharray:none"
           id="path3667" /><path
           d="m 394.77338,421.12844 37.06516,-9.9429 37.47128,-10.05185"
           style="fill:none;stroke:#000000;stroke-opacity:1;stroke-width:2;stroke-linecap:butt;stroke-linejoin:round;stroke-miterlimit:10;stroke-dasharray:none"
           id="path3669" /><path
           d="m 415.32833,438.09745 36.82958,-9.75835 37.22933,-9.86427"
           style="fill:none;stroke:#000000;stroke-opacity:1;stroke-width:2;stroke-linecap:butt;stroke-linejoin:round;stroke-miterlimit:10;stroke-dasharray:none"
           id="path3671" /><path
           d="m 435.50452,454.75379 36.59635,-9.57889 36.98987,-9.6819"
           style="fill:none;stroke:#000000;stroke-opacity:1;stroke-width:2;stroke-linecap:butt;stroke-linejoin:round;stroke-miterlimit:10;stroke-dasharray:none"
           id="path3673" /><path
           d="m 455.31234,471.10601 36.36544,-9.40434 36.75287,-9.50453"
           style="fill:none;stroke:#000000;stroke-opacity:1;stroke-width:2;stroke-linecap:butt;stroke-linejoin:round;stroke-miterlimit:10;stroke-dasharray:none"
           id="path3675" /><path
           d="m 474.76177,487.16238 36.13685,-9.23452 36.51833,-9.332"
           style="fill:none;stroke:#000000;stroke-opacity:1;stroke-width:2;stroke-linecap:butt;stroke-linejoin:round;stroke-miterlimit:10;stroke-dasharray:none"
           id="path3677" /><path
           d="m 493.86246,502.93084 35.91057,-9.06925 36.28622,-9.16412"
           style="fill:none;stroke:#000000;stroke-opacity:1;stroke-width:2;stroke-linecap:butt;stroke-linejoin:round;stroke-miterlimit:10;stroke-dasharray:none"
           id="path3679" /><path
           d="m 512.62371,518.41907 35.68657,-8.90838 36.05653,-9.00073"
           style="fill:none;stroke:#000000;stroke-opacity:1;stroke-width:2;stroke-linecap:butt;stroke-linejoin:round;stroke-miterlimit:10;stroke-dasharray:none"
           id="path3681" /><path
           d="M 87.565549,167.51485 127.906,154.60645 168.75066,141.5367"
           style="fill:none;stroke:#000000;stroke-opacity:1;stroke-width:2;stroke-linecap:butt;stroke-linejoin:round;stroke-miterlimit:10;stroke-dasharray:none"
           id="path3683" /><path
           d="m 114.19645,189.49984 40.07477,-12.63595 40.57028,-12.79218"
           style="fill:none;stroke:#000000;stroke-opacity:1;stroke-width:2;stroke-linecap:butt;stroke-linejoin:round;stroke-miterlimit:10;stroke-dasharray:none"
           id="path3685" /><path
           d="m 140.26988,211.0246 39.81128,-12.37202 40.29832,-12.52337"
           style="fill:none;stroke:#000000;stroke-opacity:1;stroke-width:2;stroke-linecap:butt;stroke-linejoin:round;stroke-miterlimit:10;stroke-dasharray:none"
           id="path3687" /><path
           d="m 165.80315,232.10343 39.55003,-12.11627 40.02881,-12.26295"
           style="fill:none;stroke:#000000;stroke-opacity:1;stroke-width:2;stroke-linecap:butt;stroke-linejoin:round;stroke-miterlimit:10;stroke-dasharray:none"
           id="path3689" /><path
           d="m 190.81287,252.75006 39.29106,-11.86838 39.76177,-12.01056"
           style="fill:none;stroke:#000000;stroke-opacity:1;stroke-width:2;stroke-linecap:butt;stroke-linejoin:round;stroke-miterlimit:10;stroke-dasharray:none"
           id="path3691" /><path
           d="m 215.31499,272.97764 39.03438,-11.62801 39.49722,-11.76589"
           style="fill:none;stroke:#000000;stroke-opacity:1;stroke-width:2;stroke-linecap:butt;stroke-linejoin:round;stroke-miterlimit:10;stroke-dasharray:none"
           id="path3693" /><path
           d="m 239.3248,292.7988 38.78003,-11.39488 39.23516,-11.52861"
           style="fill:none;stroke:#000000;stroke-opacity:1;stroke-width:2;stroke-linecap:butt;stroke-linejoin:round;stroke-miterlimit:10;stroke-dasharray:none"
           id="path3695" /><path
           d="m 262.857,312.22566 38.52799,-11.16868 38.97563,-11.29845"
           style="fill:none;stroke:#000000;stroke-opacity:1;stroke-width:2;stroke-linecap:butt;stroke-linejoin:round;stroke-miterlimit:10;stroke-dasharray:none"
           id="path3697" /><path
           d="m 285.92569,331.26988 38.27831,-10.94916 38.7186,-11.0751"
           style="fill:none;stroke:#000000;stroke-opacity:1;stroke-width:2;stroke-linecap:butt;stroke-linejoin:round;stroke-miterlimit:10;stroke-dasharray:none"
           id="path3699" /><path
           d="m 308.54444,349.94265 38.03097,-10.73604 38.4641,-10.85832"
           style="fill:none;stroke:#000000;stroke-opacity:1;stroke-width:2;stroke-linecap:butt;stroke-linejoin:round;stroke-miterlimit:10;stroke-dasharray:none"
           id="path3701" /><path
           d="m 330.72628,368.25474 37.78598,-10.52909 38.21213,-10.64784"
           style="fill:none;stroke:#000000;stroke-opacity:1;stroke-width:2;stroke-linecap:butt;stroke-linejoin:round;stroke-miterlimit:10;stroke-dasharray:none"
           id="path3703" /><path
           d="m 352.48375,386.21649 37.54335,-10.32806 37.96268,-10.44342"
           style="fill:none;stroke:#000000;stroke-opacity:1;stroke-width:2;stroke-linecap:butt;stroke-linejoin:round;stroke-miterlimit:10;stroke-dasharray:none"
           id="path3705" /><path
           d="M 373.82891,403.83786 411.132,393.70512 448.84772,383.4603"
           style="fill:none;stroke:#000000;stroke-opacity:1;stroke-width:2;stroke-linecap:butt;stroke-linejoin:round;stroke-miterlimit:10;stroke-dasharray:none"
           id="path3707" /><path
           d="m 394.77338,421.12844 37.06516,-9.9429 37.47128,-10.05185"
           style="fill:none;stroke:#000000;stroke-opacity:1;stroke-width:2;stroke-linecap:butt;stroke-linejoin:round;stroke-miterlimit:10;stroke-dasharray:none"
           id="path3709" /><path
           d="m 415.32833,438.09745 36.82958,-9.75835 37.22933,-9.86427"
           style="fill:none;stroke:#000000;stroke-opacity:1;stroke-width:2;stroke-linecap:butt;stroke-linejoin:round;stroke-miterlimit:10;stroke-dasharray:none"
           id="path3711" /><path
           d="m 435.50452,454.75379 36.59635,-9.57889 36.98987,-9.6819"
           style="fill:none;stroke:#000000;stroke-opacity:1;stroke-width:2;stroke-linecap:butt;stroke-linejoin:round;stroke-miterlimit:10;stroke-dasharray:none"
           id="path3713" /><path
           d="m 455.31234,471.10601 36.36544,-9.40434 36.75287,-9.50453"
           style="fill:none;stroke:#000000;stroke-opacity:1;stroke-width:2;stroke-linecap:butt;stroke-linejoin:round;stroke-miterlimit:10;stroke-dasharray:none"
           id="path3715" /><path
           d="m 474.76177,487.16238 36.13685,-9.23452 36.51833,-9.332"
           style="fill:none;stroke:#000000;stroke-opacity:1;stroke-width:2;stroke-linecap:butt;stroke-linejoin:round;stroke-miterlimit:10;stroke-dasharray:none"
           id="path3717" /><path
           d="m 493.86246,502.93084 35.91057,-9.06925 36.28622,-9.16412"
           style="fill:none;stroke:#000000;stroke-opacity:1;stroke-width:2;stroke-linecap:butt;stroke-linejoin:round;stroke-miterlimit:10;stroke-dasharray:none"
           id="path3719" /><path
           d="m 512.62371,518.41907 35.68657,-8.90838 36.05653,-9.00073"
           style="fill:none;stroke:#000000;stroke-opacity:1;stroke-width:2;stroke-linecap:butt;stroke-linejoin:round;stroke-miterlimit:10;stroke-dasharray:none"
           id="path3721" /></g></g><g
       id="g3723"><path
         d="m 690.9603,30.756 625.2882,0 0,609.528 -625.2882,0 0,-609.528 z"
         style="fill:#ffffff;fill-opacity:1;fill-rule:nonzero;stroke:none"
         id="path3725" /></g><g
       id="g3727"><g
         id="g3729"
         clip-path="url(#clipPath3731)"><path
           d="m 729.10008,112.60272 27.06615,18.1486 25.79194,33.70505 25.02849,42.2116 24.62597,43.79124 24.45112,38.43126 24.34951,27.41532 24.12948,15.90627 23.76938,5.27787 23.28941,-4.3918 22.71018,-13.05606 21.85628,49.90126 21.66831,40.65469 21.3822,30.78795 20.9943,20.39749 20.5034,9.59496 19.9284,-0.32856 19.3717,-4.71072 18.9289,-2.66366 18.6755,5.50039 18.6801,19.59226"
           style="fill:none;stroke:#000000;stroke-opacity:1;stroke-width:2;stroke-linecap:butt;stroke-linejoin:round;stroke-miterlimit:10;stroke-dasharray:none"
           id="path3735" /><path
           d="m 769.37408,99.337212 26.771,18.412178 25.61136,34.02033 24.91133,42.55278 24.52315,44.13274 24.31477,38.74644 24.1417,27.6819 23.84819,16.12243 23.42189,5.4479 22.88338,-4.2628 22.25335,-12.96254 21.8224,50.22501 21.5758,40.94 21.2279,31.03174 20.7762,20.5976 20.2199,9.75027 19.5865,-0.21376 19.0075,-4.61471 18.5837,-2.5625 18.3869,5.62838 18.4842,19.76751"
           style="fill:none;stroke:#000000;stroke-opacity:1;stroke-width:2;stroke-linecap:butt;stroke-linejoin:round;stroke-miterlimit:10;stroke-dasharray:none"
           id="path3737" /><path
           d="m 810.15207,85.905699 26.46637,18.680931 25.42438,34.34083 24.78943,42.89919 24.41602,44.47933 24.17333,39.06645 23.92715,27.95291 23.55852,16.34262 23.06463,5.62156 22.4664,-4.13053 21.7847,-12.86603 21.7863,50.55291 21.4797,41.22916 21.0689,31.27907 20.552,20.80091 19.9291,9.9084 19.2358,-0.0965 18.6346,-4.51637 18.2299,-2.45904 18.0913,5.75874 18.2832,19.94534"
           style="fill:none;stroke:#000000;stroke-opacity:1;stroke-width:2;stroke-linecap:butt;stroke-linejoin:round;stroke-miterlimit:10;stroke-dasharray:none"
           id="path3739" /><path
           d="m 729.10008,112.60272 40.274,-13.265508 40.77799,-13.431513"
           style="fill:none;stroke:#000000;stroke-opacity:1;stroke-width:2;stroke-linecap:butt;stroke-linejoin:round;stroke-miterlimit:10;stroke-dasharray:none"
           id="path3741" /><path
           d="m 756.16623,130.75132 39.97885,-13.00193 40.47336,-13.16276"
           style="fill:none;stroke:#000000;stroke-opacity:1;stroke-width:2;stroke-linecap:butt;stroke-linejoin:round;stroke-miterlimit:10;stroke-dasharray:none"
           id="path3743" /><path
           d="m 781.95817,164.45637 39.79827,-12.68665 40.28638,-12.84226"
           style="fill:none;stroke:#000000;stroke-opacity:1;stroke-width:2;stroke-linecap:butt;stroke-linejoin:round;stroke-miterlimit:10;stroke-dasharray:none"
           id="path3745" /><path
           d="m 806.98666,206.66797 39.68111,-12.34547 40.16448,-12.49585"
           style="fill:none;stroke:#000000;stroke-opacity:1;stroke-width:2;stroke-linecap:butt;stroke-linejoin:round;stroke-miterlimit:10;stroke-dasharray:none"
           id="path3747" /><path
           d="m 831.61263,250.45921 39.57829,-12.00397 40.05735,-12.14926"
           style="fill:none;stroke:#000000;stroke-opacity:1;stroke-width:2;stroke-linecap:butt;stroke-linejoin:round;stroke-miterlimit:10;stroke-dasharray:none"
           id="path3749" /><path
           d="m 856.06375,288.89047 39.44194,-11.68879 39.91591,-11.82925"
           style="fill:none;stroke:#000000;stroke-opacity:1;stroke-width:2;stroke-linecap:butt;stroke-linejoin:round;stroke-miterlimit:10;stroke-dasharray:none"
           id="path3751" /><path
           d="m 880.41326,316.30579 39.23413,-11.42221 39.70136,-11.55824"
           style="fill:none;stroke:#000000;stroke-opacity:1;stroke-width:2;stroke-linecap:butt;stroke-linejoin:round;stroke-miterlimit:10;stroke-dasharray:none"
           id="path3753" /><path
           d="m 904.54274,332.21206 38.95284,-11.20605 39.41169,-11.33805"
           style="fill:none;stroke:#000000;stroke-opacity:1;stroke-width:2;stroke-linecap:butt;stroke-linejoin:round;stroke-miterlimit:10;stroke-dasharray:none"
           id="path3755" /><path
           d="m 928.31212,337.48993 38.60535,-11.03602 39.05443,-11.16439"
           style="fill:none;stroke:#000000;stroke-opacity:1;stroke-width:2;stroke-linecap:butt;stroke-linejoin:round;stroke-miterlimit:10;stroke-dasharray:none"
           id="path3757" /><path
           d="m 951.60153,333.09813 38.19932,-10.90702 38.63745,-11.03212"
           style="fill:none;stroke:#000000;stroke-opacity:1;stroke-width:2;stroke-linecap:butt;stroke-linejoin:round;stroke-miterlimit:10;stroke-dasharray:none"
           id="path3759" /><path
           d="m 974.31171,320.04207 37.74249,-10.8135 38.1688,-10.93561"
           style="fill:none;stroke:#000000;stroke-opacity:1;stroke-width:2;stroke-linecap:butt;stroke-linejoin:round;stroke-miterlimit:10;stroke-dasharray:none"
           id="path3761" /><path
           d="m 996.16799,369.94333 37.70861,-10.48975 38.1327,-10.60771"
           style="fill:none;stroke:#000000;stroke-opacity:1;stroke-width:2;stroke-linecap:butt;stroke-linejoin:round;stroke-miterlimit:10;stroke-dasharray:none"
           id="path3763" /><path
           d="m 1017.8363,410.59802 37.6161,-10.20444 38.0366,-10.31855"
           style="fill:none;stroke:#000000;stroke-opacity:1;stroke-width:2;stroke-linecap:butt;stroke-linejoin:round;stroke-miterlimit:10;stroke-dasharray:none"
           id="path3765" /><path
           d="m 1039.2185,441.38597 37.4618,-9.96065 37.8776,-10.07122"
           style="fill:none;stroke:#000000;stroke-opacity:1;stroke-width:2;stroke-linecap:butt;stroke-linejoin:round;stroke-miterlimit:10;stroke-dasharray:none"
           id="path3767" /><path
           d="m 1060.2128,461.78346 37.2437,-9.76054 37.6534,-9.86791"
           style="fill:none;stroke:#000000;stroke-opacity:1;stroke-width:2;stroke-linecap:butt;stroke-linejoin:round;stroke-miterlimit:10;stroke-dasharray:none"
           id="path3769" /><path
           d="m 1080.7162,471.37842 36.9602,-9.60523 37.3626,-9.70978"
           style="fill:none;stroke:#000000;stroke-opacity:1;stroke-width:2;stroke-linecap:butt;stroke-linejoin:round;stroke-miterlimit:10;stroke-dasharray:none"
           id="path3771" /><path
           d="m 1100.6446,471.04986 36.6183,-9.49043 37.0119,-9.59248"
           style="fill:none;stroke:#000000;stroke-opacity:1;stroke-width:2;stroke-linecap:butt;stroke-linejoin:round;stroke-miterlimit:10;stroke-dasharray:none"
           id="path3773" /><path
           d="m 1120.0163,466.33914 36.2541,-9.39442 36.639,-9.49414"
           style="fill:none;stroke:#000000;stroke-opacity:1;stroke-width:2;stroke-linecap:butt;stroke-linejoin:round;stroke-miterlimit:10;stroke-dasharray:none"
           id="path3775" /><path
           d="m 1138.9452,463.67548 35.9089,-9.29326 36.2852,-9.39068"
           style="fill:none;stroke:#000000;stroke-opacity:1;stroke-width:2;stroke-linecap:butt;stroke-linejoin:round;stroke-miterlimit:10;stroke-dasharray:none"
           id="path3777" /><path
           d="m 1157.6207,469.17587 35.6203,-9.16527 35.9896,-9.26032"
           style="fill:none;stroke:#000000;stroke-opacity:1;stroke-width:2;stroke-linecap:butt;stroke-linejoin:round;stroke-miterlimit:10;stroke-dasharray:none"
           id="path3779" /><path
           d="m 1176.3008,488.76813 35.4244,-8.99002 35.7886,-9.08249"
           style="fill:none;stroke:#000000;stroke-opacity:1;stroke-width:2;stroke-linecap:butt;stroke-linejoin:round;stroke-miterlimit:10;stroke-dasharray:none"
           id="path3781" /></g></g></g></svg>